<svg width="500" height="500" viewBox="0 0 500 500" fill="none" xmlns="http://www.w3.org/2000/svg">
<path d="M308.368 179.75C351.368 191.38 389.368 188.09 416.098 231.36C441.368 272.28 429.048 307.13 395.098 336.19C306.508 412.09 238.538 308.83 140.928 289.06C55.9083 271.82 46.4183 131.62 126.498 85.9C152.308 71.17 201.168 58.53 226.918 80.65C262.998 111.65 249.258 163.78 308.368 179.75Z" fill="#00B2FF" fill-opacity="0.15"/>
<path opacity="0.9" d="M308.368 179.75C351.368 191.38 389.368 188.09 416.098 231.36C441.368 272.28 429.048 307.13 395.098 336.19C306.508 412.09 238.538 308.83 140.928 289.06C55.9083 271.82 46.4183 131.62 126.498 85.9C152.308 71.17 201.168 58.53 226.918 80.65C262.998 111.65 249.258 163.78 308.368 179.75Z" fill="#272F34" fill-opacity="0.15"/>
<path d="M249.999 427.56C357.082 427.56 443.889 422.492 443.889 416.24C443.889 409.988 357.082 404.92 249.999 404.92C142.917 404.92 56.1094 409.988 56.1094 416.24C56.1094 422.492 142.917 427.56 249.999 427.56Z" fill="#00B2FF" fill-opacity="0.25"/>
<path d="M136.11 390.75H81.78C80.5077 390.737 79.292 390.222 78.3969 389.318C77.5019 388.413 76.9999 387.192 77 385.92V363.63C77.0024 362.492 77.4061 361.39 78.14 360.52L139.54 287.52C139.994 286.981 140.561 286.548 141.2 286.251C141.839 285.954 142.535 285.8 143.24 285.8H166.77C168.051 285.8 169.28 286.309 170.185 287.215C171.091 288.121 171.6 289.349 171.6 290.63V358.63C171.6 359.911 172.109 361.14 173.015 362.045C173.92 362.951 175.149 363.46 176.43 363.46H182.64C183.921 363.46 185.15 363.969 186.055 364.875C186.961 365.781 187.47 367.009 187.47 368.29V385.88C187.47 387.161 186.961 388.39 186.055 389.295C185.15 390.201 183.921 390.71 182.64 390.71H176.43C175.149 390.71 173.92 391.219 173.015 392.125C172.109 393.031 171.6 394.259 171.6 395.54V409.54C171.6 410.821 171.091 412.05 170.185 412.955C169.28 413.861 168.051 414.37 166.77 414.37H145.77C144.489 414.37 143.26 413.861 142.355 412.955C141.449 412.05 140.94 410.821 140.94 409.54V395.54C140.929 394.266 140.416 393.048 139.511 392.151C138.607 391.253 137.384 390.75 136.11 390.75ZM140.94 360.12V332.92C140.951 332.218 140.744 331.529 140.346 330.95C139.948 330.371 139.379 329.931 138.719 329.69C138.059 329.449 137.341 329.42 136.663 329.606C135.986 329.793 135.384 330.185 134.94 330.73L111.83 357.93C111.412 358.421 111.144 359.022 111.056 359.661C110.968 360.3 111.065 360.951 111.335 361.536C111.606 362.122 112.038 362.618 112.581 362.966C113.124 363.314 113.755 363.499 114.4 363.5H137.52C137.967 363.505 138.411 363.422 138.826 363.254C139.24 363.087 139.618 362.839 139.936 362.524C140.254 362.21 140.507 361.836 140.679 361.423C140.851 361.01 140.94 360.567 140.94 360.12Z" fill="white"/>
<path d="M198.369 350.66C198.369 326.66 202.702 309.843 211.369 300.21C220.036 290.577 233.212 285.777 250.899 285.81C259.406 285.81 266.406 286.86 271.899 288.96C276.864 290.751 281.41 293.538 285.259 297.15C288.504 300.243 291.253 303.819 293.409 307.75C295.545 311.865 297.155 316.233 298.199 320.75C300.586 330.397 301.774 340.302 301.739 350.24C301.739 373.18 297.856 389.967 290.089 400.6C282.322 411.233 268.959 416.567 249.999 416.6C239.332 416.6 230.736 414.903 224.209 411.51C217.559 408.062 211.96 402.888 207.999 396.53C204.946 391.863 202.572 385.497 200.879 377.43C199.126 368.616 198.285 359.646 198.369 350.66ZM233.209 350.74C233.209 366.84 234.632 377.84 237.479 383.74C240.326 389.64 244.449 392.59 249.849 392.59C251.566 392.606 253.269 392.283 254.86 391.637C256.451 390.992 257.899 390.038 259.119 388.83C261.739 386.33 263.666 382.377 264.899 376.97C266.132 371.563 266.749 363.143 266.749 351.71C266.749 334.93 265.326 323.65 262.479 317.87C259.632 312.09 255.366 309.2 249.679 309.2C243.866 309.2 239.669 312.147 237.089 318.04C234.509 323.933 233.216 334.833 233.209 350.74Z" fill="white"/>
<path d="M371.689 390.75H317.369C316.088 390.75 314.86 390.241 313.954 389.335C313.048 388.43 312.539 387.201 312.539 385.92V363.63C312.539 362.493 312.939 361.392 313.669 360.52L375.079 287.52C375.531 286.982 376.096 286.548 376.734 286.251C377.371 285.954 378.066 285.8 378.769 285.8H402.309C403.59 285.8 404.819 286.309 405.724 287.215C406.63 288.121 407.139 289.349 407.139 290.63V358.63C407.134 359.27 407.256 359.905 407.498 360.498C407.74 361.09 408.098 361.629 408.55 362.082C409.002 362.535 409.54 362.894 410.132 363.137C410.724 363.381 411.359 363.504 411.999 363.5H418.199C419.48 363.5 420.709 364.009 421.614 364.915C422.52 365.821 423.029 367.049 423.029 368.33V385.92C423.029 387.201 422.52 388.43 421.614 389.335C420.709 390.241 419.48 390.75 418.199 390.75H411.999C410.718 390.75 409.49 391.259 408.584 392.165C407.678 393.071 407.169 394.299 407.169 395.58V409.58C407.169 410.861 406.66 412.09 405.754 412.995C404.849 413.901 403.62 414.41 402.339 414.41H381.339C380.058 414.41 378.83 413.901 377.924 412.995C377.018 412.09 376.509 410.861 376.509 409.58V395.58C376.509 394.301 376.002 393.074 375.098 392.168C374.194 391.263 372.968 390.753 371.689 390.75ZM376.519 360.12V332.92C376.518 332.229 376.305 331.556 375.91 330.99C375.514 330.423 374.955 329.992 374.307 329.753C373.658 329.515 372.953 329.481 372.285 329.655C371.616 329.83 371.018 330.205 370.569 330.73L347.449 357.93C347.032 358.42 346.764 359.019 346.676 359.656C346.587 360.293 346.683 360.942 346.95 361.527C347.218 362.112 347.647 362.608 348.187 362.958C348.727 363.307 349.356 363.495 349.999 363.5H373.109C373.555 363.504 373.998 363.42 374.412 363.251C374.825 363.083 375.201 362.835 375.518 362.521C375.836 362.206 376.087 361.833 376.259 361.421C376.431 361.008 376.519 360.566 376.519 360.12Z" fill="white"/>
<path d="M157.821 298.88C156.891 300.88 155.911 302.68 154.961 304.54L152.161 310.09L149.361 315.66C148.421 317.53 147.451 319.4 146.301 321.24C146.473 319.097 146.885 316.981 147.531 314.93C148.144 312.865 148.937 310.857 149.901 308.93C150.86 307.001 151.999 305.167 153.301 303.45C154.588 301.724 156.109 300.186 157.821 298.88Z" fill="white"/>
<path d="M161.38 303.58C160.51 305.31 159.61 306.94 158.73 308.58L156.14 313.48L153.55 318.4C152.68 320.05 151.79 321.71 150.73 323.33C150.918 321.422 151.317 319.54 151.92 317.72C152.505 315.897 153.244 314.127 154.13 312.43C155.014 310.725 156.063 309.111 157.26 307.61C158.437 306.079 159.824 304.722 161.38 303.58Z" fill="white"/>
<path d="M151.66 296.91C150.89 298.71 150.07 300.4 149.27 302.1L146.92 307.19L144.57 312.29C143.77 314 142.96 315.72 141.98 317.41C142.072 315.474 142.384 313.555 142.91 311.69C143.412 309.817 144.081 307.993 144.91 306.24C145.716 304.487 146.684 302.813 147.8 301.24C148.884 299.627 150.182 298.171 151.66 296.91Z" fill="white"/>
<path d="M381 372.91C382.711 374.228 384.232 375.776 385.52 377.51C386.849 379.227 388.014 381.066 389 383C389.958 384.929 390.747 386.936 391.36 389C392.004 391.052 392.42 393.168 392.6 395.31C391.44 393.47 390.48 391.6 389.53 389.73L386.73 384.16L383.93 378.61C382.94 376.71 382 374.87 381 372.91Z" fill="white"/>
<path d="M377.48 377.61C379.028 378.748 380.411 380.094 381.59 381.61C382.79 383.114 383.838 384.731 384.72 386.44C385.615 388.133 386.355 389.904 386.93 391.73C387.542 393.548 387.945 395.431 388.13 397.34C387.07 395.72 386.18 394.06 385.3 392.41L382.71 387.49L380.12 382.59C379.24 381 378.34 379.34 377.48 377.61Z" fill="white"/>
<path d="M387.191 370.94C388.688 372.188 390.007 373.634 391.111 375.24C392.228 376.811 393.193 378.485 393.991 380.24C394.816 381.995 395.486 383.818 395.991 385.69C396.513 387.556 396.825 389.475 396.921 391.41C395.921 389.71 395.121 388 394.331 386.29L391.981 381.18L389.631 376.1C388.791 374.43 388.001 372.74 387.191 370.94Z" fill="white"/>
<path d="M299.121 401.62H312.401V405H304.091V407.55H311.801V410.82H304.091V414H312.641V417.63H299.121V401.62Z" fill="#00B2FF"/>
<path d="M312.641 419.59H299.121C298.61 419.59 298.119 419.387 297.757 419.025C297.395 418.663 297.191 418.172 297.191 417.66V401.66C297.19 401.406 297.239 401.155 297.336 400.92C297.432 400.685 297.574 400.472 297.754 400.292C297.933 400.113 298.147 399.971 298.381 399.874C298.616 399.778 298.868 399.729 299.121 399.73H312.401C312.655 399.729 312.907 399.778 313.142 399.874C313.376 399.971 313.59 400.113 313.769 400.292C313.949 400.472 314.091 400.685 314.187 400.92C314.284 401.155 314.333 401.406 314.331 401.66V405C313.929 405.272 313.644 405.685 313.533 406.158C313.421 406.63 313.492 407.127 313.731 407.55V410.82C313.509 411.06 313.351 411.352 313.271 411.67C313.192 411.987 313.195 412.32 313.278 412.636C313.362 412.953 313.525 413.243 313.751 413.479C313.977 413.716 314.259 413.892 314.571 413.99V417.62C314.577 417.877 314.531 418.132 314.436 418.371C314.342 418.61 314.2 418.827 314.02 419.011C313.841 419.194 313.626 419.34 313.389 419.439C313.153 419.539 312.898 419.59 312.641 419.59ZM301.051 415.73H303.181C302.876 415.564 302.621 415.319 302.445 415.019C302.269 414.72 302.178 414.378 302.181 414.03V410.86C302.456 410.685 302.682 410.443 302.839 410.157C302.995 409.871 303.077 409.551 303.077 409.225C303.077 408.899 302.995 408.579 302.839 408.293C302.682 408.007 302.456 407.765 302.181 407.59V405C302.182 404.714 302.245 404.433 302.368 404.175C302.491 403.917 302.67 403.69 302.891 403.51H301.071L301.051 415.73Z" fill="#00B2FF"/>
<path d="M315.383 417.66V401.66H323.643C324.826 401.618 326.008 401.749 327.153 402.05C327.967 402.293 328.673 402.809 329.153 403.51C329.508 404.019 329.755 404.596 329.878 405.205C330.001 405.813 329.997 406.441 329.866 407.048C329.736 407.655 329.482 408.228 329.12 408.733C328.758 409.237 328.296 409.662 327.763 409.98C327.221 410.285 326.633 410.501 326.023 410.62C326.479 410.754 326.913 410.953 327.313 411.21C327.609 411.457 327.874 411.739 328.103 412.05C328.365 412.363 328.599 412.697 328.803 413.05L331.203 417.7H325.603L322.953 412.8C322.74 412.33 322.434 411.908 322.053 411.56C321.698 411.313 321.275 411.183 320.843 411.19H320.403V417.7L315.383 417.66ZM320.383 408.12H322.473C322.915 408.082 323.353 408.008 323.783 407.9C324.107 407.838 324.397 407.656 324.593 407.39C324.822 407.074 324.929 406.686 324.896 406.297C324.863 405.908 324.692 405.543 324.413 405.27C323.857 404.937 323.208 404.793 322.563 404.86H320.383V408.12Z" fill="#00B2FF"/>
<path d="M331.16 419.59H325.56C325.213 419.591 324.872 419.498 324.573 419.322C324.274 419.146 324.028 418.893 323.86 418.59L322.29 415.67V417.67C322.287 418.181 322.083 418.67 321.722 419.032C321.36 419.393 320.871 419.597 320.36 419.6H315.36C315.106 419.6 314.855 419.55 314.621 419.453C314.387 419.356 314.174 419.214 313.995 419.035C313.816 418.856 313.674 418.643 313.577 418.409C313.48 418.174 313.43 417.924 313.43 417.67V401.67C313.428 401.416 313.477 401.165 313.574 400.93C313.67 400.695 313.813 400.482 313.992 400.302C314.172 400.123 314.385 399.981 314.62 399.884C314.854 399.788 315.106 399.739 315.36 399.74H323.62C325.007 399.693 326.393 399.858 327.73 400.23C328.927 400.612 329.962 401.383 330.67 402.42C331.412 403.509 331.793 404.803 331.76 406.12C331.781 407.268 331.495 408.401 330.93 409.4C330.586 409.989 330.147 410.516 329.63 410.96C329.947 411.345 330.225 411.76 330.46 412.2L332.85 416.82C333.003 417.114 333.077 417.442 333.066 417.774C333.055 418.105 332.959 418.427 332.787 418.711C332.616 418.994 332.374 419.228 332.085 419.391C331.797 419.554 331.471 419.64 331.14 419.64L331.16 419.59ZM326.71 415.73H328L327 413.9C326.867 413.655 326.706 413.427 326.52 413.22C326.38 413.041 326.23 412.871 326.07 412.71C325.834 412.584 325.586 412.484 325.33 412.41C325.083 412.325 324.855 412.192 324.66 412.02L326.71 415.73ZM317.31 415.73H318.43V411.15C318.43 410.857 318.496 410.568 318.624 410.305C318.753 410.041 318.939 409.811 319.17 409.63C318.939 409.452 318.753 409.223 318.625 408.961C318.496 408.699 318.43 408.412 318.43 408.12V404.86C318.43 404.375 318.612 403.908 318.94 403.55H317.31V415.73ZM323.17 409.98C323.532 410.26 323.847 410.598 324.1 410.98C324.063 410.813 324.046 410.641 324.05 410.47C324.068 410.225 324.129 409.984 324.23 409.76H324.14C323.76 409.88 323.44 409.94 323.17 410V409.98ZM325.4 403.63L325.63 403.8C326.015 404.125 326.321 404.534 326.526 404.994C326.73 405.455 326.827 405.956 326.81 406.46C326.815 407.215 326.569 407.95 326.11 408.55C326.324 408.492 326.529 408.405 326.72 408.29C327.092 408.074 327.405 407.768 327.63 407.4C327.845 406.991 327.949 406.532 327.93 406.07C327.957 405.544 327.817 405.022 327.53 404.58C327.294 404.224 326.94 403.962 326.53 403.84C326.16 403.737 325.782 403.666 325.4 403.63Z" fill="#00B2FF"/>
<path d="M332.812 417.66V401.66H341.073C342.259 401.617 343.445 401.749 344.592 402.05C345.407 402.292 346.114 402.808 346.592 403.51C346.948 404.019 347.195 404.596 347.318 405.205C347.44 405.813 347.436 406.441 347.306 407.048C347.176 407.655 346.922 408.229 346.56 408.733C346.198 409.238 345.736 409.662 345.203 409.98C344.66 410.285 344.073 410.501 343.462 410.62C343.918 410.755 344.353 410.953 344.753 411.21C345.053 411.456 345.321 411.738 345.552 412.05C345.808 412.365 346.039 412.699 346.242 413.05L348.643 417.7H343.003L340.353 412.8C340.143 412.328 339.837 411.905 339.453 411.56C339.1 411.309 338.675 411.179 338.242 411.19H337.802V417.7L332.812 417.66ZM337.812 408.12H339.902C340.344 408.083 340.783 408.009 341.212 407.9C341.537 407.838 341.826 407.656 342.022 407.39C342.231 407.126 342.34 406.797 342.332 406.46C342.346 406.238 342.308 406.015 342.224 405.809C342.139 405.603 342.008 405.419 341.842 405.27C341.286 404.937 340.637 404.793 339.992 404.86H337.812V408.12Z" fill="#00B2FF"/>
<path d="M348.591 419.59H343.001C342.654 419.591 342.314 419.498 342.015 419.322C341.716 419.146 341.469 418.893 341.301 418.59L339.731 415.67V417.67C339.731 418.182 339.528 418.673 339.166 419.035C338.804 419.397 338.313 419.6 337.801 419.6H332.801C332.29 419.597 331.801 419.393 331.439 419.032C331.078 418.67 330.874 418.181 330.871 417.67V401.67C330.871 401.158 331.074 400.667 331.436 400.305C331.798 399.943 332.289 399.74 332.801 399.74H341.061C342.448 399.692 343.834 399.857 345.171 400.23C346.372 400.608 347.411 401.38 348.121 402.42C348.792 403.455 349.169 404.653 349.213 405.885C349.257 407.118 348.966 408.34 348.371 409.42C348.028 410.006 347.593 410.533 347.081 410.98C347.395 411.368 347.672 411.783 347.911 412.22L350.291 416.84C350.444 417.134 350.518 417.462 350.508 417.794C350.497 418.125 350.401 418.447 350.229 418.731C350.057 419.014 349.815 419.248 349.527 419.411C349.238 419.574 348.912 419.66 348.581 419.66L348.591 419.59ZM344.141 415.73H345.431L344.481 413.9C344.337 413.66 344.173 413.433 343.991 413.22C343.859 413.035 343.708 412.864 343.541 412.71C343.306 412.584 343.058 412.484 342.801 412.41C342.558 412.324 342.334 412.191 342.141 412.02L344.141 415.73ZM334.741 415.73H335.861V411.15C335.861 410.857 335.928 410.568 336.056 410.305C336.184 410.041 336.371 409.811 336.601 409.63C336.371 409.451 336.184 409.223 336.056 408.961C335.928 408.699 335.861 408.411 335.861 408.12V404.86C335.861 404.373 336.047 403.904 336.381 403.55H334.741V415.73ZM340.601 410C340.964 410.28 341.278 410.618 341.531 411C341.506 410.831 341.506 410.659 341.531 410.49C341.541 410.245 341.599 410.003 341.701 409.78H341.621C341.191 409.88 340.871 409.94 340.601 410ZM342.841 403.65L343.061 403.82C343.446 404.145 343.753 404.554 343.957 405.014C344.161 405.475 344.259 405.976 344.241 406.48C344.246 407.235 344 407.97 343.541 408.57C343.758 408.511 343.967 408.424 344.161 408.31C344.531 408.093 344.84 407.787 345.061 407.42C345.277 407.011 345.38 406.552 345.361 406.09C345.388 405.564 345.248 405.042 344.961 404.6C344.725 404.244 344.371 403.982 343.961 403.86C343.595 403.751 343.22 403.674 342.841 403.63V403.65Z" fill="#00B2FF"/>
<path d="M349.173 409.65C349.063 408.533 349.202 407.406 349.579 406.349C349.957 405.292 350.564 404.332 351.356 403.538C352.149 402.743 353.107 402.134 354.163 401.754C355.219 401.374 356.346 401.233 357.463 401.34C358.583 401.269 359.706 401.422 360.766 401.791C361.825 402.161 362.8 402.738 363.633 403.49C364.379 404.293 364.954 405.239 365.325 406.27C365.696 407.301 365.856 408.396 365.793 409.49C365.855 411.08 365.533 412.661 364.853 414.1C364.235 415.283 363.282 416.257 362.113 416.9C360.737 417.612 359.201 417.956 357.653 417.9C356.111 417.951 354.577 417.657 353.163 417.04C351.949 416.439 350.945 415.483 350.283 414.3C349.504 412.877 349.12 411.271 349.173 409.65ZM354.173 409.65C354.064 410.882 354.382 412.114 355.073 413.14C355.392 413.472 355.775 413.736 356.199 413.916C356.622 414.096 357.078 414.189 357.538 414.189C357.999 414.189 358.454 414.096 358.878 413.916C359.301 413.736 359.684 413.472 360.003 413.14C360.701 412.028 361.011 410.716 360.883 409.41C360.977 408.233 360.651 407.06 359.963 406.1C359.649 405.761 359.264 405.496 358.835 405.323C358.406 405.15 357.945 405.074 357.483 405.1C357.029 405.083 356.577 405.17 356.161 405.354C355.746 405.537 355.377 405.813 355.083 406.16C354.368 407.184 354.032 408.425 354.133 409.67L354.173 409.65Z" fill="#00B2FF"/>
<path d="M357.65 419.86C355.816 419.912 353.994 419.55 352.32 418.8C350.762 418.038 349.472 416.821 348.62 415.31C347.654 413.584 347.177 411.627 347.24 409.65C347.312 407.626 347.961 405.665 349.11 403.996C350.258 402.328 351.859 401.022 353.724 400.233C355.59 399.443 357.641 399.202 359.639 399.538C361.636 399.874 363.496 400.773 365 402.13C365.933 403.112 366.658 404.273 367.129 405.544C367.6 406.814 367.808 408.167 367.74 409.52C367.802 411.424 367.4 413.315 366.57 415.03C365.783 416.543 364.565 417.789 363.07 418.61C361.401 419.488 359.534 419.918 357.65 419.86ZM359 403.37C359.924 403.623 360.753 404.145 361.38 404.87C362.394 406.172 362.889 407.804 362.77 409.45C362.77 411.74 362.34 413.36 361.45 414.45C360.879 415.127 360.131 415.633 359.29 415.91C359.952 415.813 360.592 415.6 361.18 415.28C362.03 414.827 362.727 414.131 363.18 413.28C363.716 412.12 363.966 410.847 363.91 409.57C363.972 408.726 363.863 407.877 363.588 407.076C363.313 406.275 362.878 405.538 362.31 404.91C361.408 404.043 360.244 403.502 359 403.37ZM355.91 403.37C354.712 403.515 353.595 404.049 352.73 404.89C352.153 405.531 351.712 406.283 351.433 407.099C351.155 407.916 351.045 408.78 351.11 409.64C351.053 410.926 351.344 412.204 351.95 413.34C352.415 414.203 353.134 414.901 354.01 415.34C354.521 415.581 355.063 415.753 355.62 415.85C354.824 415.56 354.117 415.067 353.57 414.42C352.678 412.996 352.205 411.35 352.205 409.67C352.205 407.99 352.678 406.344 353.57 404.92C354.178 404.189 354.989 403.653 355.9 403.38L355.91 403.37ZM357.45 407.02C357.274 407.003 357.097 407.028 356.933 407.094C356.769 407.16 356.624 407.265 356.51 407.4C356.127 408.088 355.973 408.879 356.07 409.66C355.973 410.435 356.127 411.22 356.51 411.9C356.633 412.04 356.788 412.148 356.962 412.215C357.137 412.281 357.325 412.303 357.51 412.28C358.21 412.28 358.41 412.05 358.51 411.93C358.61 411.81 358.93 411.37 358.93 409.44C359.009 408.743 358.854 408.039 358.49 407.44C358.364 407.287 358.202 407.167 358.019 407.09C357.836 407.013 357.637 406.983 357.44 407L357.45 407.02Z" fill="#00B2FF"/>
<path d="M368.531 417.66V401.66H376.791C377.974 401.618 379.157 401.749 380.301 402.05C381.115 402.293 381.821 402.809 382.301 403.51C382.657 404.019 382.904 404.596 383.026 405.205C383.149 405.813 383.145 406.441 383.015 407.048C382.884 407.655 382.63 408.228 382.268 408.733C381.906 409.237 381.444 409.662 380.911 409.98C380.369 410.285 379.782 410.501 379.171 410.62C379.627 410.754 380.061 410.953 380.461 411.21C380.758 411.457 381.023 411.739 381.251 412.05C381.513 412.363 381.747 412.697 381.951 413.05L384.351 417.7H378.751L376.101 412.8C375.889 412.33 375.582 411.908 375.201 411.56C374.847 411.313 374.423 411.183 373.991 411.19H373.551V417.7L368.531 417.66ZM373.531 408.12H375.621C376.063 408.082 376.501 408.008 376.931 407.9C377.256 407.838 377.545 407.656 377.741 407.39C377.97 407.074 378.078 406.686 378.045 406.297C378.012 405.908 377.84 405.543 377.561 405.27C377.005 404.937 376.356 404.793 375.711 404.86H373.531V408.12Z" fill="#00B2FF"/>
<path d="M384.312 419.59H378.712C378.365 419.591 378.025 419.498 377.726 419.322C377.427 419.146 377.18 418.893 377.012 418.59L375.442 415.67V417.67C375.439 418.181 375.235 418.67 374.874 419.032C374.513 419.393 374.023 419.597 373.512 419.6H368.512C368 419.6 367.509 419.397 367.147 419.035C366.785 418.673 366.582 418.182 366.582 417.67V401.67C366.581 401.416 366.63 401.165 366.726 400.93C366.823 400.695 366.965 400.482 367.144 400.302C367.324 400.123 367.537 399.981 367.772 399.884C368.007 399.788 368.258 399.739 368.512 399.74H376.772C378.159 399.693 379.545 399.858 380.882 400.23C382.079 400.612 383.114 401.383 383.822 402.42C384.567 403.508 384.952 404.802 384.922 406.12C384.942 407.269 384.651 408.402 384.082 409.4C383.739 409.989 383.299 410.516 382.782 410.96C383.099 411.345 383.377 411.76 383.612 412.2L386.002 416.82C386.155 417.114 386.229 417.442 386.218 417.774C386.208 418.105 386.112 418.427 385.94 418.711C385.768 418.994 385.526 419.228 385.238 419.391C384.949 419.554 384.623 419.64 384.292 419.64L384.312 419.59ZM379.862 415.73H381.142L380.202 413.9C380.058 413.66 379.894 413.433 379.712 413.22C379.572 413.041 379.422 412.871 379.262 412.71C379.027 412.584 378.779 412.484 378.522 412.41C378.275 412.325 378.048 412.192 377.852 412.02L379.862 415.73ZM370.462 415.73H371.582V411.15C371.582 410.857 371.649 410.568 371.777 410.305C371.905 410.041 372.091 409.811 372.322 409.63C372.092 409.452 371.905 409.223 371.777 408.961C371.649 408.699 371.582 408.412 371.582 408.12V404.86C371.578 404.374 371.761 403.905 372.092 403.55H370.462V415.73ZM376.322 409.98C376.685 410.26 376.999 410.598 377.252 410.98C377.227 410.811 377.227 410.639 377.252 410.47C377.262 410.225 377.32 409.984 377.422 409.76H377.332C376.912 409.88 376.592 409.94 376.322 410V409.98ZM378.562 403.63L378.782 403.8C379.167 404.125 379.474 404.534 379.678 404.994C379.882 405.455 379.98 405.956 379.962 406.46C379.967 407.215 379.721 407.95 379.262 408.55C379.893 408.373 380.433 407.961 380.772 407.4C380.989 406.959 381.095 406.471 381.079 405.979C381.064 405.487 380.927 405.007 380.682 404.58C380.446 404.224 380.092 403.962 379.682 403.84C379.316 403.737 378.941 403.667 378.562 403.63Z" fill="#00B2FF"/>
<path d="M299.121 401.62H312.401V405H304.091V407.55H311.801V410.82H304.091V414H312.641V417.63H299.121V401.62Z" fill="#272F34"/>
<path d="M315.383 417.66V401.66H323.643C324.826 401.618 326.008 401.749 327.153 402.05C327.967 402.293 328.673 402.809 329.153 403.51C329.508 404.019 329.755 404.596 329.878 405.205C330.001 405.813 329.997 406.441 329.866 407.048C329.736 407.655 329.482 408.228 329.12 408.733C328.758 409.237 328.296 409.662 327.763 409.98C327.221 410.285 326.633 410.501 326.023 410.62C326.479 410.754 326.913 410.953 327.313 411.21C327.609 411.457 327.874 411.739 328.103 412.05C328.365 412.363 328.599 412.697 328.803 413.05L331.203 417.7H325.603L322.953 412.8C322.74 412.33 322.434 411.908 322.053 411.56C321.698 411.313 321.275 411.183 320.843 411.19H320.403V417.7L315.383 417.66ZM320.383 408.12H322.473C322.915 408.082 323.353 408.008 323.783 407.9C324.107 407.838 324.397 407.656 324.593 407.39C324.822 407.074 324.929 406.686 324.896 406.297C324.863 405.908 324.692 405.543 324.413 405.27C323.857 404.937 323.208 404.793 322.563 404.86H320.383V408.12Z" fill="#272F34"/>
<path d="M332.812 417.66V401.66H341.073C342.259 401.617 343.445 401.749 344.592 402.05C345.407 402.292 346.114 402.808 346.592 403.51C346.948 404.019 347.195 404.596 347.318 405.205C347.44 405.813 347.436 406.441 347.306 407.048C347.176 407.655 346.922 408.229 346.56 408.733C346.198 409.238 345.736 409.662 345.203 409.98C344.66 410.285 344.073 410.501 343.462 410.62C343.918 410.755 344.353 410.953 344.753 411.21C345.053 411.456 345.321 411.738 345.552 412.05C345.808 412.365 346.039 412.699 346.242 413.05L348.643 417.7H343.003L340.353 412.8C340.143 412.328 339.837 411.905 339.453 411.56C339.1 411.309 338.675 411.179 338.242 411.19H337.802V417.7L332.812 417.66ZM337.812 408.12H339.902C340.344 408.083 340.783 408.009 341.212 407.9C341.537 407.838 341.826 407.656 342.022 407.39C342.231 407.126 342.34 406.797 342.332 406.46C342.346 406.238 342.308 406.015 342.224 405.809C342.139 405.603 342.008 405.419 341.842 405.27C341.286 404.937 340.637 404.793 339.992 404.86H337.812V408.12Z" fill="#272F34"/>
<path d="M349.173 409.65C349.063 408.533 349.202 407.406 349.579 406.349C349.957 405.292 350.564 404.332 351.356 403.538C352.149 402.743 353.107 402.134 354.163 401.754C355.219 401.374 356.346 401.233 357.463 401.34C358.583 401.269 359.706 401.422 360.766 401.791C361.825 402.161 362.8 402.738 363.633 403.49C364.379 404.293 364.954 405.239 365.325 406.27C365.696 407.301 365.856 408.396 365.793 409.49C365.855 411.08 365.533 412.661 364.853 414.1C364.235 415.283 363.282 416.257 362.113 416.9C360.737 417.612 359.201 417.956 357.653 417.9C356.111 417.951 354.577 417.657 353.163 417.04C351.949 416.439 350.945 415.483 350.283 414.3C349.504 412.877 349.12 411.271 349.173 409.65ZM354.173 409.65C354.064 410.882 354.382 412.114 355.073 413.14C355.392 413.472 355.775 413.736 356.199 413.916C356.622 414.096 357.078 414.189 357.538 414.189C357.999 414.189 358.454 414.096 358.878 413.916C359.301 413.736 359.684 413.472 360.003 413.14C360.701 412.028 361.011 410.716 360.883 409.41C360.977 408.233 360.651 407.06 359.963 406.1C359.649 405.761 359.264 405.496 358.835 405.323C358.406 405.15 357.945 405.074 357.483 405.1C357.029 405.083 356.577 405.17 356.161 405.354C355.746 405.537 355.377 405.813 355.083 406.16C354.368 407.184 354.032 408.425 354.133 409.67L354.173 409.65Z" fill="#272F34"/>
<path d="M368.531 417.66V401.66H376.791C377.974 401.618 379.157 401.749 380.301 402.05C381.115 402.293 381.821 402.809 382.301 403.51C382.657 404.019 382.904 404.596 383.026 405.205C383.149 405.813 383.145 406.441 383.015 407.048C382.884 407.655 382.63 408.228 382.268 408.733C381.906 409.237 381.444 409.662 380.911 409.98C380.369 410.285 379.782 410.501 379.171 410.62C379.627 410.754 380.061 410.953 380.461 411.21C380.758 411.457 381.023 411.739 381.251 412.05C381.513 412.363 381.747 412.697 381.951 413.05L384.351 417.7H378.751L376.101 412.8C375.889 412.33 375.582 411.908 375.201 411.56C374.847 411.313 374.423 411.183 373.991 411.19H373.551V417.7L368.531 417.66ZM373.531 408.12H375.621C376.063 408.082 376.501 408.008 376.931 407.9C377.256 407.838 377.545 407.656 377.741 407.39C377.97 407.074 378.078 406.686 378.045 406.297C378.012 405.908 377.84 405.543 377.561 405.27C377.005 404.937 376.356 404.793 375.711 404.86H373.531V408.12Z" fill="#272F34"/>
<path d="M426.5 156.28C422.298 154.945 417.908 154.3 413.5 154.37C409.22 154.395 404.982 155.212 401 156.78C399.327 157.437 397.755 158.326 396.33 159.42C396.19 159.54 396.03 159.65 395.92 159.76C395.81 159.87 395.7 159.95 395.52 160.14C395.34 160.33 394.87 160.81 394.52 161.14C393.881 161.864 393.29 162.629 392.75 163.43C390.515 166.716 389.096 170.486 388.61 174.43C388.372 176.297 388.395 178.189 388.68 180.05C388.813 180.925 389.017 181.788 389.29 182.63C389.561 183.474 389.896 184.296 390.29 185.09C391.386 187.144 392.626 189.119 394 191C395.53 193.18 397.3 195.56 399 198.47C400.977 201.693 402.388 205.231 403.17 208.93C403.568 211.011 403.716 213.133 403.61 215.25C403.49 217.326 403.124 219.38 402.52 221.37C401.353 225.182 399.412 228.712 396.82 231.74C395.541 233.228 394.117 234.584 392.57 235.79C391.075 236.966 389.475 238 387.79 238.88C384.537 240.558 381.041 241.715 377.43 242.31C374.05 242.87 370.617 243.031 367.2 242.79C363.941 242.559 360.711 242.03 357.55 241.21C354.58 240.44 351.658 239.495 348.8 238.38C343.24 236.25 338.2 233.81 333.39 231.74C328.934 229.695 324.275 228.126 319.49 227.06C317.321 226.62 315.113 226.398 312.9 226.4C310.655 226.407 308.415 226.621 306.21 227.04C301.56 227.989 297.064 229.578 292.85 231.76C284.11 236.17 276.03 242.89 267.67 249.93C266.157 251.208 264.2 251.837 262.227 251.678C260.253 251.519 258.422 250.586 257.133 249.082C255.844 247.578 255.203 245.626 255.348 243.651C255.494 241.676 256.415 239.839 257.91 238.54C266.16 231.35 274.85 223.64 285.63 217.88C291.11 214.908 296.981 212.72 303.07 211.38C306.238 210.711 309.462 210.339 312.7 210.27C315.974 210.197 319.247 210.455 322.47 211.04C328.428 212.206 334.244 214.006 339.82 216.41C345.12 218.58 350.01 220.81 354.73 222.51C356.994 223.343 359.304 224.045 361.65 224.61C363.809 225.129 366.012 225.444 368.23 225.55C372.129 225.869 376.041 225.111 379.54 223.36C380.275 222.951 380.971 222.475 381.62 221.94C382.224 221.444 382.78 220.891 383.28 220.29C384.239 219.112 384.946 217.751 385.36 216.29C385.545 215.639 385.646 214.967 385.66 214.29C385.676 213.665 385.615 213.04 385.48 212.43C385.045 210.777 384.343 209.206 383.4 207.78C382.29 205.98 380.77 203.96 379.1 201.69C377.172 199.153 375.431 196.479 373.89 193.69C373.017 192.055 372.269 190.357 371.65 188.61C371.044 186.856 370.576 185.057 370.25 183.23C369.616 179.676 369.478 176.052 369.84 172.46C370.537 165.459 372.903 158.728 376.74 152.83C377.704 151.337 378.763 149.908 379.91 148.55C380.5 147.87 381.1 147.2 381.73 146.55C382.02 146.24 382.44 145.85 382.81 145.5C383.18 145.15 383.57 144.83 383.95 144.5C386.806 142.161 389.986 140.248 393.39 138.82C399.587 136.226 406.213 134.808 412.93 134.64C419.49 134.431 426.042 135.285 432.33 137.17C434.713 138.05 436.672 139.804 437.809 142.076C438.945 144.347 439.175 146.967 438.451 149.402C437.727 151.837 436.103 153.905 433.909 155.186C431.715 156.467 429.116 156.866 426.64 156.3L426.5 156.28Z" fill="#263238"/>
<path d="M426.261 157.09C420.887 155.268 415.192 154.587 409.541 155.09C406.814 155.338 404.128 155.915 401.541 156.81C399.399 157.541 397.397 158.629 395.62 160.03L395.05 160.52C393.166 162.25 390.671 163.162 388.115 163.053C385.559 162.944 383.151 161.824 381.421 159.94C379.69 158.056 378.779 155.561 378.888 153.005C378.996 150.449 380.116 148.04 382 146.31C385.503 142.884 389.636 140.167 394.171 138.31C398.252 136.609 402.528 135.416 406.9 134.76C415.481 133.5 424.23 134.058 432.58 136.4C435.352 137.158 437.709 138.987 439.132 141.483C440.555 143.979 440.929 146.938 440.171 149.71C439.412 152.481 437.584 154.838 435.087 156.262C432.591 157.685 429.632 158.058 426.86 157.3L426.33 157.14L426.261 157.09Z" fill="#00B2FF"/>
<path d="M239.799 280.85L243.509 286.63C239.779 288.58 235.879 288.29 231.899 288.29C230.209 280.47 239.799 280.85 239.799 280.85Z" fill="#263238"/>
<path d="M217.188 250C221.918 263.61 239.458 281.66 239.458 281.66C239.458 281.66 232.058 283.14 234.068 288.25H244.397L266.638 284.06C267.379 283.887 268.028 283.439 268.451 282.806C268.875 282.172 269.041 281.402 268.918 280.65L260.707 253.11L217.188 250Z" fill="#00B2FF"/>
<path d="M303.461 257.79L305.461 265.9C309.381 264.35 312.691 263.29 314.391 259.65C312.421 254.59 303.461 257.79 303.461 257.79Z" fill="#263238"/>
<path d="M285.899 216.18C292.899 228.72 307.659 259.3 307.659 259.3C307.659 259.3 315.239 259.62 314.229 264.95L284.839 272.21C284.184 272.437 283.472 272.442 282.814 272.223C282.156 272.004 281.588 271.574 281.199 271L260.199 253.22C271.659 246.22 284.999 227.85 285.899 216.18Z" fill="#00B2FF"/>
<path opacity="0.1" d="M272.281 242.49C268.839 246.657 264.795 250.287 260.281 253.26L266.281 258.15C272.751 252.36 274.591 246.16 272.281 242.49Z" fill="black"/>
<path d="M264.799 179.77C272.959 181.16 306.849 176.56 309.369 176.44C309.639 174.57 310.499 169.94 312.529 170.76C314.559 171.58 315.599 175.08 315.189 176.76C319.999 175.9 326.319 185.76 319.129 193.76C308.599 205.58 270.129 207.39 270.129 207.39C270.129 207.39 249.259 181.73 264.799 179.77Z" fill="#00B2FF"/>
<path opacity="0.1" d="M267.34 195.5C265.713 195.32 264.068 195.501 262.52 196.03C264.752 200.014 267.3 203.813 270.14 207.39C270.14 207.39 277.9 207.02 287.4 205.56C282.17 201.82 273.88 196.55 267.34 195.5Z" fill="black"/>
<path d="M315.188 176.73C320.048 174.73 323.448 173.73 324.568 175.4C325.688 177.07 324.187 180.58 319.487 181.49C315.177 178.79 315.188 176.73 315.188 176.73Z" fill="#00B2FF"/>
<path d="M318.349 180.89C323.469 180.72 326.899 181.02 327.349 182.89C327.799 184.76 325.219 187.48 320.639 186.69C317.629 182.77 318.349 180.89 318.349 180.89Z" fill="#00B2FF"/>
<path d="M321.58 186.12C324.87 187.65 326.89 188.99 326.29 190.6C325.69 192.21 322.84 193.45 320.29 191.35C320.26 187.33 321.58 186.12 321.58 186.12Z" fill="#00B2FF"/>
<path d="M202.148 205.34C198.388 212.71 174.428 237.11 172.818 239.07C171.158 238.16 166.938 236.07 166.388 238.2C165.838 240.33 168.008 243.25 169.568 243.9C166.008 247.24 170.098 258.19 180.868 257.25C196.638 255.87 221.088 226.14 221.088 226.14C221.088 226.14 212.998 194.05 202.148 205.34Z" fill="#00B2FF"/>
<path opacity="0.1" d="M213.231 216.78C214.066 215.373 215.195 214.162 216.541 213.23C218.403 217.403 219.925 221.721 221.091 226.14C221.091 226.14 216.161 232.14 209.301 238.87C209.431 232.45 210.161 222.65 213.231 216.78Z" fill="black"/>
<path d="M169.569 243.9C165.039 246.58 162.229 248.73 162.899 250.62C163.569 252.51 167.279 253.42 170.819 250.2C171.229 245.13 169.569 243.9 169.569 243.9Z" fill="#00B2FF"/>
<path d="M171 248.93C167.8 252.93 166 255.85 167.26 257.34C168.52 258.83 172.2 258.34 174.31 254.22C173 249.47 171 248.93 171 248.93Z" fill="#00B2FF"/>
<path d="M173.281 254.64C172.531 258.19 172.401 260.64 174.061 261.1C175.721 261.56 178.401 260.04 178.221 256.76C175.001 254.31 173.281 254.64 173.281 254.64Z" fill="#00B2FF"/>
<path opacity="0.1" d="M260.73 253.21V253.15L247.43 252.15C247.16 257.88 253.83 261.51 262.79 259.97L260.73 253.21Z" fill="black"/>
<path d="M263.19 184.37L235.75 196.12L208.32 207.87C208.32 207.87 211.24 243.33 220.24 255.48C229.24 267.63 246.62 263.89 261.97 257.31C277.32 250.73 291.97 240.74 289.43 225.84C286.89 210.94 263.19 184.37 263.19 184.37Z" fill="#00B2FF"/>
<path opacity="0.2" d="M251.25 191L236.31 197.4L221.38 203.8C221.6 200.89 215.5 227.96 225.9 242.39C232.68 251.79 245.34 249.21 256.47 244.44C267.6 239.67 278.19 232.29 276.06 220.9C272.8 203.43 249 189.18 251.25 191Z" fill="white"/>
<path opacity="0.2" d="M246.5 195.22L236.5 199.48L226.55 203.75C226.62 201.65 223.17 221.12 230.55 231.84C235.38 238.84 243.89 237.28 251.31 234.1C258.73 230.92 265.73 225.83 264 217.51C261.41 204.76 244.92 193.83 246.5 195.22Z" fill="white"/>
<path opacity="0.2" d="M176.528 253.345C178.419 252.587 179.157 249.989 178.176 247.544C177.195 245.099 174.867 243.732 172.975 244.491C171.084 245.25 170.346 247.847 171.327 250.292C172.308 252.737 174.636 254.104 176.528 253.345Z" fill="white"/>
<path opacity="0.2" d="M319.479 185.84C319.669 188.47 318.179 190.72 316.149 190.84C314.119 190.96 312.309 188.98 312.149 186.36C311.989 183.74 313.449 181.48 315.479 181.36C317.509 181.24 319.289 183.22 319.479 185.84Z" fill="white"/>
<path d="M175.689 120C135.819 91.78 74.5593 109.09 69.7493 119.75C64.6393 131.1 120.119 161.67 133.749 191.21C153.649 154.24 175.689 120 175.689 120Z" fill="#263238"/>
<path opacity="0.5" d="M160.998 131.57C129.438 109.57 84.9376 119.47 82.0576 126.97C78.9876 134.97 122.338 159.32 134.448 181.22C146.798 155.37 160.998 131.57 160.998 131.57Z" fill="#00B2FF"/>
<path d="M164.93 126.23C155.99 126.83 148.42 129.83 141.75 136.87C144.756 135.906 147.959 135.736 151.05 136.376C154.141 137.015 157.014 138.443 159.39 140.52L164.93 126.23Z" fill="#263238"/>
<path d="M223.398 99.55C242.558 39.09 310.798 38.85 324.398 48C334.728 55 290.738 82.93 302.528 123.25C262.848 109.67 223.398 99.55 223.398 99.55Z" fill="#263238"/>
<path opacity="0.5" d="M241.43 98.24C257.43 63.24 294.75 49.24 312.18 52.37C328.66 55.31 279.42 93.74 289.48 127.57C265.7 111.57 241.43 98.24 241.43 98.24Z" fill="#00B2FF"/>
<path d="M240.34 92.84C243.424 91.1697 246.808 90.1268 250.298 89.7715C253.787 89.4162 257.312 89.7556 260.67 90.77C258.203 91.3229 255.921 92.5051 254.046 94.2013C252.17 95.8976 250.766 98.0503 249.97 100.45L240.34 92.84Z" fill="#263238"/>
<path d="M241.168 90C243.21 88.0907 245.61 86.6041 248.229 85.6259C250.848 84.6476 253.634 84.197 256.428 84.3C254.636 85.2256 253.115 86.5987 252.011 88.2861C250.907 89.9736 250.258 91.9178 250.128 93.93L241.168 90Z" fill="#263238"/>
<path d="M314.331 126.34C324.411 149.86 288.051 178.34 237.431 200.03C186.811 221.72 141.111 228.4 131.001 204.87C120.891 181.34 145.241 124.76 195.861 103.07C246.481 81.38 304.251 102.81 314.331 126.34Z" fill="#00B2FF"/>
<path opacity="0.1" d="M294.349 128.58C303.689 150.39 275.209 175.39 234.349 192.89C193.489 210.39 155.759 213.76 146.419 191.94C137.079 170.12 159.659 131.37 200.499 113.88C241.339 96.3899 284.999 106.76 294.349 128.58Z" fill="black"/>
<path d="M212.168 160.37C211.288 158.31 213.978 155.95 217.828 154.29C221.678 152.63 225.258 152.29 226.138 154.38C227.018 156.47 225.668 161.92 221.808 163.58C217.948 165.24 213.048 162.43 212.168 160.37Z" fill="#263238"/>
<path opacity="0.3" d="M220.34 178.74C219.75 177.34 222.58 175.31 226.44 173.66C230.3 172.01 233.72 171.36 234.31 172.75C234.9 174.14 232.98 178.28 229.13 179.93C225.28 181.58 220.94 180.13 220.34 178.74Z" fill="black"/>
<path opacity="0.4" d="M148.911 161.77C154.421 145.99 167.011 134.28 179.851 131.35C201.501 126.41 207.851 153.52 197.391 172.21C185.711 193.13 159.911 189.94 157.391 180.37C153.761 186.74 139.001 190.07 148.911 161.77Z" fill="white"/>
<path d="M197.398 144C197.398 144 195.928 163.21 185.788 170C175.648 176.79 160.668 168.47 160.668 168.47C160.668 168.47 162.138 149.27 172.278 142.47C182.418 135.67 197.398 144 197.398 144Z" fill="white"/>
<path d="M160.668 168.37C160.577 163.665 161.252 158.977 162.668 154.49C163.365 152.194 164.324 149.986 165.528 147.91C166.744 145.758 168.34 143.843 170.238 142.26C172.195 140.664 174.507 139.563 176.978 139.05C179.379 138.54 181.853 138.472 184.278 138.85C188.974 139.54 193.452 141.283 197.378 143.95C193.113 142.313 188.633 141.303 184.078 140.95C181.894 140.804 179.699 141.006 177.578 141.55C175.507 142.029 173.58 142.996 171.958 144.37C170.278 145.737 168.847 147.385 167.728 149.24L167.268 149.93L166.858 150.66C166.598 151.15 166.308 151.66 166.058 152.13C165.588 153.13 165.058 154.13 164.668 155.2C162.963 159.468 161.625 163.874 160.668 168.37Z" fill="#263238"/>
<path d="M224.449 132.36C224.449 132.36 239.369 144.55 251.239 141.86C263.109 139.17 267.459 122.62 267.459 122.62C267.459 122.62 252.549 110.43 240.669 113.12C228.789 115.81 224.449 132.36 224.449 132.36Z" fill="white"/>
<path d="M267.459 122.62C263.543 120.221 259.432 118.157 255.169 116.45C254.169 116.03 253.039 115.71 251.979 115.35C251.449 115.18 250.899 115.06 250.359 114.91L249.559 114.7L248.739 114.56C246.625 114.094 244.447 113.992 242.299 114.26C240.185 114.495 238.157 115.224 236.379 116.39C234.522 117.547 232.864 118.995 231.469 120.68C228.58 124.212 226.222 128.147 224.469 132.36C225.242 127.678 227.068 123.233 229.809 119.36C231.21 117.344 232.965 115.599 234.989 114.21C237.074 112.772 239.475 111.859 241.989 111.55C244.442 111.269 246.925 111.435 249.319 112.04C251.632 112.601 253.874 113.426 255.999 114.5C260.234 116.567 264.104 119.31 267.459 122.62Z" fill="#263238"/>
<path d="M187.869 166.53C193.68 165.116 197.246 159.259 195.832 153.447C194.419 147.635 188.562 144.07 182.75 145.484C176.938 146.897 173.372 152.754 174.786 158.566C176.2 164.378 182.057 167.944 187.869 166.53Z" fill="#263238"/>
<path d="M176.608 156.65C176.966 157.477 177.56 158.18 178.317 158.67C179.074 159.159 179.959 159.414 180.86 159.401C181.761 159.388 182.638 159.108 183.381 158.597C184.123 158.086 184.697 157.366 185.031 156.529C185.364 155.692 185.442 154.774 185.255 153.893C185.067 153.011 184.622 152.205 183.977 151.576C183.332 150.947 182.514 150.523 181.628 150.358C180.742 150.193 179.827 150.295 178.998 150.65C178.447 150.886 177.947 151.229 177.529 151.659C177.11 152.088 176.78 152.597 176.558 153.154C176.336 153.711 176.226 154.307 176.235 154.907C176.243 155.507 176.37 156.099 176.608 156.65Z" fill="white"/>
<path d="M251.157 136.127C253.379 130.574 250.679 124.27 245.126 122.048C239.572 119.826 233.269 122.526 231.047 128.079C228.825 133.632 231.525 139.936 237.078 142.158C242.631 144.38 248.934 141.68 251.157 136.127Z" fill="#263238"/>
<path d="M232.401 132.74C232.758 133.567 233.353 134.27 234.109 134.76C234.866 135.249 235.751 135.504 236.652 135.491C237.553 135.478 238.431 135.198 239.173 134.687C239.915 134.176 240.489 133.456 240.823 132.619C241.156 131.781 241.234 130.864 241.047 129.983C240.859 129.101 240.415 128.295 239.769 127.666C239.124 127.037 238.306 126.613 237.42 126.448C236.534 126.283 235.619 126.385 234.791 126.74C234.238 126.975 233.738 127.317 233.318 127.747C232.899 128.176 232.569 128.685 232.346 129.242C232.124 129.8 232.015 130.396 232.024 130.997C232.033 131.597 232.161 132.189 232.401 132.74Z" fill="white"/>
<path d="M186.899 156.67C187.042 157 187.281 157.279 187.583 157.473C187.885 157.668 188.239 157.768 188.598 157.762C188.958 157.756 189.307 157.643 189.603 157.439C189.898 157.234 190.127 156.946 190.259 156.612C190.391 156.278 190.422 155.912 190.346 155.56C190.271 155.209 190.093 154.888 189.835 154.637C189.577 154.386 189.251 154.218 188.898 154.153C188.544 154.087 188.179 154.128 187.849 154.27C187.405 154.463 187.056 154.824 186.878 155.274C186.7 155.724 186.708 156.226 186.899 156.67Z" fill="white"/>
<path d="M242.691 132.76C242.829 133.091 243.062 133.374 243.361 133.573C243.66 133.772 244.011 133.878 244.37 133.878C244.728 133.878 245.079 133.772 245.378 133.574C245.677 133.375 245.91 133.092 246.049 132.761C246.188 132.43 246.225 132.065 246.157 131.713C246.089 131.36 245.918 131.036 245.666 130.78C245.414 130.525 245.092 130.349 244.74 130.276C244.389 130.203 244.024 130.236 243.691 130.37C243.466 130.459 243.262 130.592 243.089 130.761C242.917 130.93 242.78 131.132 242.687 131.354C242.594 131.577 242.546 131.816 242.547 132.057C242.547 132.299 242.596 132.538 242.691 132.76Z" fill="white"/>
<path d="M236.881 166.87C236.331 167.22 235.781 167.58 235.211 167.87C234.641 168.16 234.011 168.44 233.381 168.67C232.094 169.12 230.744 169.36 229.381 169.38C227.979 169.361 226.595 169.061 225.311 168.5C223.989 167.92 222.817 167.048 221.881 165.95L223.511 165.25C223.656 166.688 223.478 168.14 222.991 169.5C222.511 170.816 221.773 172.023 220.821 173.05C219.87 174.024 218.765 174.835 217.551 175.45C216.951 175.738 216.337 175.995 215.711 176.22C215.071 176.41 214.431 176.57 213.801 176.72C214.371 176.38 214.941 176.07 215.501 175.72C216.061 175.37 216.581 175.05 217.081 174.65C218.071 173.914 218.961 173.054 219.731 172.09C220.452 171.136 221 170.063 221.351 168.92C221.524 168.356 221.645 167.777 221.711 167.19C221.776 166.632 221.776 166.068 221.711 165.51C221.688 165.275 221.756 165.04 221.901 164.854C222.046 164.668 222.257 164.545 222.491 164.51C222.65 164.49 222.811 164.51 222.96 164.57C223.109 164.629 223.24 164.726 223.341 164.85C223.704 165.279 224.11 165.671 224.551 166.02C225.025 166.366 225.527 166.674 226.051 166.94C227.122 167.466 228.275 167.804 229.461 167.94C230.692 168.051 231.933 167.997 233.151 167.78C233.781 167.7 234.391 167.5 235.021 167.38C235.651 167.26 236.251 167.05 236.881 166.87Z" fill="#263238"/>
<path d="M222.611 166.35C222.433 166.348 222.259 166.296 222.111 166.198C221.962 166.101 221.844 165.962 221.771 165.8L219.001 159.29C218.908 159.068 218.906 158.819 218.996 158.596C219.086 158.373 219.26 158.195 219.481 158.1C219.591 158.051 219.71 158.024 219.831 158.022C219.951 158.019 220.071 158.041 220.183 158.086C220.295 158.131 220.397 158.198 220.482 158.282C220.568 158.367 220.635 158.468 220.681 158.58L223.471 165.08C223.531 165.219 223.555 165.37 223.542 165.521C223.528 165.671 223.478 165.816 223.394 165.942C223.311 166.068 223.198 166.171 223.064 166.243C222.931 166.314 222.782 166.351 222.631 166.35H222.611Z" fill="#263238"/>
<path d="M131.72 180.23C123.61 184.04 117.72 192.14 116.25 201.73C123.41 192.99 131.76 195.56 131.76 195.56L131.72 180.23Z" fill="#00B2FF"/>
<path d="M132.549 203.86C131.134 207.082 130.526 210.6 130.778 214.11C131.031 217.619 132.137 221.014 133.999 224C133.919 215.4 140.059 212.84 140.059 212.84L132.549 203.86Z" fill="#00B2FF"/>
<path d="M132.079 190.66C123.909 196.76 119.229 207.13 119.719 218.17C125.719 206.78 135.619 207.75 135.619 207.75L132.079 190.66Z" fill="#00B2FF"/>
<path d="M296 109.84C304.35 106.6 314.25 107.96 322.24 113.47C310.97 112.63 307.07 120.47 307.07 120.47L296 109.84Z" fill="#00B2FF"/>
<path d="M309.859 126.34C316.589 125.25 323.929 126.1 328.429 130.48C322.905 130.477 317.557 132.425 313.329 135.98L309.859 126.34Z" fill="#00B2FF"/>
<path d="M307.611 125.36C313.721 128.36 319.181 133.36 320.281 139.55C315.795 136.321 310.311 134.784 304.801 135.21L307.611 125.36Z" fill="#00B2FF"/>
<path d="M303.32 117.3C313.37 115.59 324.1 119.36 331.76 127.3C319.38 123.79 313.25 131.62 313.25 131.62L303.32 117.3Z" fill="#00B2FF"/>
<path d="M189.999 107.53C189.619 101.87 192.349 97 199.109 91.97C197.689 100.05 203.539 102.07 203.539 102.07L189.999 107.53Z" fill="#00B2FF"/>
<path d="M197.379 104.38C198.719 97.8 205.459 91.38 215.269 87.25C208.269 94.79 213.909 99.47 213.909 99.47L197.379 104.38Z" fill="#00B2FF"/>
<path d="M141.59 222.55C141.501 222.547 141.415 222.519 141.34 222.47C141.291 222.437 141.248 222.394 141.215 222.344C141.182 222.295 141.16 222.239 141.149 222.18C141.137 222.121 141.138 222.061 141.15 222.003C141.163 221.944 141.187 221.889 141.22 221.84C167.73 182.22 215.97 166.59 216.45 166.44C216.567 166.405 216.693 166.417 216.801 166.473C216.909 166.529 216.992 166.625 217.03 166.74C217.065 166.855 217.053 166.98 216.997 167.086C216.941 167.193 216.845 167.273 216.73 167.31C216.25 167.46 168.31 183 141.97 222.31C141.935 222.381 141.881 222.441 141.814 222.484C141.747 222.526 141.67 222.549 141.59 222.55Z" fill="#263238"/>
<path d="M148.889 247.51C148.839 247.519 148.788 247.519 148.739 247.51C148.624 247.471 148.529 247.388 148.474 247.28C148.42 247.171 148.411 247.045 148.449 246.93C166.749 193.48 214.649 170.32 215.129 170.1C215.236 170.048 215.36 170.042 215.472 170.081C215.585 170.12 215.677 170.203 215.729 170.31C215.756 170.364 215.772 170.422 215.776 170.482C215.78 170.542 215.772 170.602 215.753 170.659C215.733 170.716 215.702 170.769 215.662 170.813C215.622 170.858 215.573 170.894 215.519 170.92C215.039 171.15 167.519 194.15 149.319 247.23C149.282 247.313 149.222 247.384 149.146 247.434C149.069 247.484 148.98 247.51 148.889 247.51Z" fill="#263238"/>
<path d="M227.798 162.53C227.718 162.532 227.639 162.511 227.57 162.47C227.501 162.43 227.445 162.371 227.408 162.3C227.376 162.249 227.354 162.193 227.345 162.133C227.336 162.074 227.339 162.014 227.354 161.955C227.369 161.897 227.395 161.843 227.432 161.796C227.469 161.748 227.515 161.709 227.568 161.68C228.008 161.42 272.078 136.35 319.218 143.49C319.277 143.497 319.333 143.516 319.385 143.546C319.436 143.576 319.481 143.616 319.517 143.664C319.552 143.711 319.578 143.766 319.591 143.824C319.605 143.881 319.607 143.941 319.598 144C319.576 144.118 319.51 144.224 319.414 144.296C319.317 144.369 319.197 144.402 319.078 144.39C272.268 137.29 228.468 162.21 228.078 162.47C227.993 162.519 227.895 162.54 227.798 162.53Z" fill="#263238"/>
<path d="M322.381 165.89C322.335 165.9 322.287 165.9 322.241 165.89C266.441 147.89 231.831 163.89 231.481 164.07C231.372 164.122 231.247 164.128 231.134 164.088C231.021 164.047 230.928 163.964 230.876 163.855C230.824 163.746 230.818 163.621 230.858 163.508C230.899 163.394 230.982 163.302 231.091 163.25C231.431 163.08 266.341 146.89 322.521 165.02C322.635 165.061 322.728 165.144 322.782 165.252C322.836 165.36 322.846 165.485 322.811 165.6C322.778 165.687 322.719 165.761 322.642 165.813C322.565 165.865 322.474 165.892 322.381 165.89Z" fill="#263238"/>
<path d="M219.154 410.259C227.774 400.951 227.215 386.418 217.907 377.799C208.599 369.179 194.066 369.738 185.447 379.046C176.827 388.354 177.386 402.887 186.694 411.506C196.002 420.126 210.535 419.567 219.154 410.259Z" fill="#00B2FF"/>
<path d="M266.749 418.62C255.369 418.62 251.349 414.31 247.469 410.15C246.184 408.697 244.776 407.359 243.259 406.15C237.439 401.71 228.259 399.68 223.629 401.81C223.413 401.846 223.191 401.81 222.998 401.708C222.804 401.605 222.649 401.442 222.557 401.244C222.465 401.045 222.441 400.821 222.488 400.608C222.536 400.394 222.652 400.201 222.819 400.06C228.119 397.63 238.009 399.72 244.429 404.61C246.034 405.898 247.526 407.319 248.889 408.86C252.649 412.91 256.209 416.73 266.749 416.73C269.321 416.798 271.864 416.168 274.107 414.908C276.35 413.647 278.21 411.802 279.489 409.57C280.545 407.818 281.116 405.816 281.143 403.77C281.169 401.725 280.65 399.709 279.639 397.93C277.249 394.08 272.329 392.12 265.769 392.43C265.623 392.476 265.468 392.489 265.317 392.466C265.165 392.443 265.021 392.385 264.895 392.298C264.769 392.21 264.665 392.095 264.591 391.961C264.517 391.826 264.474 391.677 264.467 391.524C264.46 391.37 264.488 391.218 264.55 391.077C264.611 390.937 264.704 390.812 264.821 390.713C264.938 390.614 265.076 390.543 265.225 390.507C265.374 390.47 265.529 390.467 265.679 390.5C272.969 390.17 278.509 392.44 281.279 396.91C282.47 398.982 283.088 401.334 283.07 403.724C283.052 406.113 282.4 408.455 281.179 410.51C279.729 413.038 277.623 415.127 275.082 416.554C272.542 417.982 269.662 418.696 266.749 418.62Z" fill="#00B2FF"/>
<path d="M211.999 412.2C199.896 412.077 188.231 407.653 179.089 399.72C178.971 399.536 178.916 399.319 178.933 399.101C178.949 398.883 179.037 398.677 179.182 398.514C179.327 398.351 179.522 398.239 179.736 398.197C179.951 398.155 180.173 398.184 180.369 398.28C188.369 405.42 202.649 412.18 218.579 409.78C218.72 409.718 218.872 409.69 219.026 409.697C219.179 409.704 219.328 409.746 219.463 409.82C219.597 409.894 219.713 409.998 219.8 410.124C219.888 410.25 219.946 410.394 219.969 410.546C219.992 410.698 219.979 410.853 219.933 410.999C219.887 411.145 219.807 411.278 219.701 411.389C219.595 411.5 219.464 411.584 219.32 411.636C219.176 411.689 219.022 411.707 218.869 411.69C216.595 412.03 214.299 412.201 211.999 412.2Z" fill="#00B2FF"/>
<path d="M209.479 415.06C197.689 415.06 187.619 410.42 178.829 400.96C178.658 400.775 178.562 400.532 178.562 400.28C178.562 400.028 178.658 399.785 178.829 399.6C179.015 399.426 179.26 399.329 179.514 399.329C179.769 399.329 180.014 399.426 180.199 399.6C189.929 410.08 201.299 414.37 214.949 412.75C215.092 412.69 215.246 412.664 215.401 412.674C215.555 412.685 215.705 412.73 215.839 412.808C215.972 412.886 216.086 412.994 216.171 413.123C216.256 413.252 216.31 413.399 216.329 413.553C216.347 413.706 216.33 413.862 216.278 414.008C216.226 414.154 216.141 414.285 216.03 414.393C215.918 414.5 215.783 414.58 215.636 414.626C215.488 414.673 215.332 414.684 215.179 414.66C213.289 414.908 211.386 415.042 209.479 415.06Z" fill="#00B2FF"/>
<path d="M192.06 416.22C191.811 416.221 191.571 416.13 191.386 415.963C191.201 415.797 191.085 415.567 191.06 415.32C190.22 404.04 194.11 386.08 204.67 371.39C204.84 371.252 205.05 371.173 205.269 371.166C205.488 371.159 205.703 371.224 205.882 371.351C206.06 371.479 206.192 371.661 206.256 371.87C206.321 372.079 206.315 372.304 206.24 372.51C196 386.82 192.21 404.25 193 415.18C193.001 415.427 192.911 415.666 192.747 415.851C192.582 416.035 192.356 416.153 192.11 416.18L192.06 416.22Z" fill="#00B2FF"/>
<path d="M182.472 407.27C182.288 407.269 182.108 407.217 181.952 407.12C181.743 406.977 181.596 406.761 181.54 406.514C181.484 406.267 181.524 406.008 181.652 405.79C185.012 400.48 197.492 382.67 217.052 376.42C217.295 376.352 217.554 376.378 217.779 376.493C218.003 376.608 218.176 376.803 218.262 377.04C218.33 377.283 218.304 377.542 218.189 377.766C218.074 377.991 217.879 378.163 217.642 378.25C198.702 384.31 186.552 401.65 183.282 406.82C183.193 406.955 183.073 407.066 182.932 407.144C182.791 407.223 182.633 407.266 182.472 407.27Z" fill="#00B2FF"/>
<path d="M182.469 407.27C182.346 407.271 182.223 407.247 182.109 407.2C181.878 407.098 181.694 406.913 181.594 406.681C181.494 406.449 181.485 406.188 181.569 405.95C184.527 398.679 189 392.121 194.69 386.714C200.38 381.306 207.157 377.173 214.569 374.59C214.788 374.574 215.006 374.631 215.189 374.751C215.373 374.872 215.511 375.049 215.584 375.256C215.657 375.463 215.659 375.688 215.592 375.896C215.524 376.105 215.39 376.285 215.209 376.41C208.05 378.899 201.504 382.885 196.007 388.103C190.51 393.321 186.188 399.65 183.329 406.67C183.256 406.84 183.136 406.986 182.984 407.092C182.832 407.198 182.654 407.259 182.469 407.27Z" fill="#00B2FF"/>
<path d="M189.21 414.54C188.967 414.542 188.732 414.456 188.548 414.298C188.364 414.14 188.244 413.92 188.21 413.68C185.79 392.84 192.63 380.92 200.39 371.15C200.553 370.958 200.783 370.835 201.033 370.805C201.284 370.776 201.536 370.842 201.74 370.99C201.934 371.154 202.059 371.386 202.089 371.638C202.119 371.891 202.051 372.145 201.9 372.35C194.4 381.8 187.79 393.35 190.13 413.46C190.15 413.713 190.074 413.964 189.916 414.163C189.758 414.361 189.531 414.493 189.28 414.53L189.21 414.54Z" fill="#00B2FF"/>
<path d="M186.532 412.36C186.323 412.355 186.121 412.285 185.954 412.159C185.788 412.034 185.664 411.859 185.602 411.66C182.602 400.61 184.832 383.33 197.072 371.48C197.257 371.308 197.5 371.213 197.752 371.213C198.004 371.213 198.247 371.308 198.432 371.48C198.606 371.665 198.703 371.91 198.703 372.165C198.703 372.419 198.606 372.664 198.432 372.85C187.282 383.64 184.482 400.27 187.482 411.12C187.542 411.366 187.506 411.626 187.382 411.847C187.257 412.068 187.054 412.233 186.812 412.31L186.532 412.36Z" fill="#00B2FF"/>
<path d="M225.001 398.86C224.801 398.857 224.605 398.795 224.441 398.68C210.141 388.39 192.701 384.6 181.771 385.42C181.554 385.38 181.356 385.268 181.208 385.104C181.06 384.939 180.972 384.73 180.956 384.509C180.94 384.288 180.997 384.069 181.12 383.884C181.242 383.7 181.422 383.561 181.631 383.49C192.911 382.66 210.871 386.54 225.571 397.11C225.719 397.239 225.826 397.408 225.878 397.598C225.93 397.787 225.926 397.987 225.865 398.173C225.804 398.36 225.69 398.525 225.536 398.647C225.383 398.769 225.196 398.843 225.001 398.86Z" fill="#00B2FF"/>
<path d="M225.202 396.19C225.067 396.193 224.934 396.166 224.812 396.11C211.992 390.42 192.592 389.67 179.692 394.35C179.566 394.44 179.422 394.499 179.269 394.524C179.117 394.549 178.961 394.538 178.814 394.492C178.667 394.447 178.532 394.368 178.42 394.261C178.308 394.155 178.223 394.024 178.17 393.88C178.117 393.735 178.098 393.579 178.116 393.426C178.133 393.273 178.185 393.126 178.268 392.996C178.352 392.866 178.464 392.758 178.597 392.678C178.729 392.599 178.878 392.552 179.032 392.54C192.352 387.7 212.362 388.48 225.592 394.35C225.819 394.461 225.995 394.653 226.086 394.889C226.177 395.124 226.175 395.386 226.082 395.62C226.002 395.787 225.878 395.929 225.722 396.03C225.567 396.13 225.387 396.186 225.202 396.19Z" fill="#00B2FF"/>
<path d="M225.159 393.49C225.026 393.488 224.895 393.46 224.773 393.407C224.651 393.353 224.541 393.276 224.449 393.18C214.939 382.84 202.619 379.18 184.449 381.27C184.306 381.33 184.152 381.356 183.997 381.346C183.843 381.335 183.693 381.29 183.559 381.212C183.426 381.134 183.312 381.026 183.227 380.897C183.142 380.768 183.088 380.621 183.07 380.467C183.051 380.314 183.069 380.158 183.12 380.012C183.172 379.867 183.257 379.735 183.369 379.628C183.48 379.52 183.615 379.44 183.762 379.394C183.91 379.347 184.066 379.336 184.219 379.36C202.779 377.2 215.999 381.18 225.829 391.88C225.94 392.022 226.01 392.192 226.032 392.371C226.054 392.55 226.027 392.732 225.954 392.897C225.881 393.062 225.765 393.204 225.618 393.308C225.471 393.413 225.299 393.476 225.119 393.49H225.159Z" fill="#00B2FF"/>
<path d="M224.441 389.57C224.185 389.564 223.942 389.46 223.761 389.28C211.871 377.42 195.101 375.71 187.511 378.28C187.291 378.294 187.073 378.236 186.89 378.113C186.706 377.991 186.569 377.812 186.498 377.603C186.428 377.394 186.428 377.168 186.499 376.96C186.57 376.751 186.707 376.572 186.891 376.45C194.941 373.72 212.661 375.45 225.121 387.91C225.292 388.095 225.388 388.338 225.388 388.59C225.388 388.842 225.292 389.085 225.121 389.27C224.941 389.454 224.698 389.561 224.441 389.57Z" fill="#00B2FF"/>
<path d="M220.002 410.31C219.912 410.324 219.821 410.324 219.732 410.31C196.732 403.5 179.822 388.04 179.662 387.88C179.547 387.695 179.496 387.477 179.516 387.26C179.536 387.043 179.627 386.838 179.774 386.678C179.921 386.517 180.117 386.408 180.331 386.369C180.546 386.33 180.767 386.362 180.962 386.46C181.132 386.62 197.732 401.78 220.282 408.46C220.474 408.552 220.632 408.704 220.733 408.892C220.833 409.081 220.87 409.297 220.839 409.508C220.807 409.719 220.709 409.915 220.559 410.067C220.408 410.218 220.213 410.317 220.002 410.35V410.31Z" fill="#00B2FF"/>
<path d="M220.46 409.72C220.329 409.718 220.2 409.691 220.08 409.64C206.163 403.426 192.83 395.98 180.24 387.39C180.094 387.339 179.962 387.254 179.854 387.143C179.746 387.033 179.665 386.898 179.618 386.751C179.571 386.603 179.558 386.447 179.582 386.294C179.606 386.141 179.664 385.995 179.754 385.869C179.843 385.742 179.961 385.638 180.097 385.565C180.233 385.492 180.385 385.451 180.54 385.447C180.694 385.442 180.848 385.473 180.989 385.538C181.129 385.603 181.253 385.699 181.35 385.82C193.829 394.333 207.045 401.713 220.84 407.87C221.018 407.976 221.159 408.135 221.243 408.325C221.326 408.515 221.349 408.727 221.307 408.93C221.265 409.133 221.162 409.319 221.01 409.46C220.858 409.602 220.666 409.692 220.46 409.72Z" fill="#00B2FF"/>
<path d="M221.311 408.53C221.154 408.533 220.999 408.495 220.861 408.42C201.191 397.84 180.571 387.57 180.371 387.47C180.207 387.325 180.096 387.13 180.054 386.915C180.012 386.701 180.041 386.478 180.138 386.282C180.234 386.085 180.392 385.926 180.588 385.828C180.784 385.73 181.006 385.699 181.221 385.74C181.431 385.84 202.081 396.13 221.771 406.74C221.936 406.857 222.062 407.021 222.132 407.211C222.202 407.4 222.213 407.607 222.163 407.803C222.113 407.999 222.005 408.176 221.853 408.309C221.701 408.442 221.512 408.526 221.311 408.55V408.53Z" fill="#00B2FF"/>
<path d="M221.999 407.47C221.785 407.474 221.576 407.403 221.409 407.27C203.549 393.27 181.099 386.77 180.869 386.71C180.679 386.597 180.532 386.425 180.45 386.22C180.368 386.015 180.357 385.788 180.417 385.576C180.478 385.363 180.607 385.177 180.784 385.046C180.962 384.914 181.178 384.846 181.399 384.85C181.629 384.92 204.399 391.5 222.599 405.75C222.791 405.913 222.914 406.143 222.944 406.394C222.973 406.644 222.907 406.896 222.759 407.1C222.67 407.217 222.555 407.311 222.423 407.375C222.291 407.44 222.146 407.472 221.999 407.47Z" fill="#00B2FF"/>
<path d="M223.84 403.59C223.619 403.589 223.405 403.516 223.23 403.38C206.87 389.94 181.23 386.77 181.01 386.74C180.805 386.659 180.633 386.512 180.52 386.322C180.407 386.132 180.36 385.911 180.386 385.691C180.412 385.472 180.51 385.268 180.665 385.11C180.819 384.953 181.022 384.851 181.24 384.82C181.5 384.82 207.65 388.09 224.46 401.89C224.648 402.058 224.765 402.289 224.789 402.54C224.813 402.79 224.742 403.04 224.59 403.24C224.498 403.349 224.383 403.436 224.253 403.496C224.124 403.557 223.983 403.589 223.84 403.59Z" fill="#00B2FF"/>
<path d="M193.691 417C193.498 416.979 193.316 416.903 193.166 416.781C193.016 416.659 192.904 416.496 192.845 416.312C192.786 416.128 192.781 415.93 192.832 415.744C192.882 415.557 192.986 415.389 193.131 415.26C211.361 402.07 221.771 383.77 221.871 383.59C221.908 383.441 221.98 383.303 222.08 383.186C222.18 383.069 222.306 382.977 222.447 382.917C222.588 382.857 222.742 382.83 222.895 382.838C223.049 382.847 223.198 382.891 223.332 382.966C223.466 383.042 223.58 383.147 223.667 383.274C223.753 383.402 223.809 383.547 223.83 383.699C223.851 383.851 223.837 384.006 223.789 384.152C223.74 384.298 223.659 384.431 223.551 384.54C223.451 384.72 212.831 403.39 194.261 416.82C194.093 416.937 193.894 416.999 193.691 417Z" fill="#00B2FF"/>
<g opacity="0.3">
<path d="M212.003 412.2C199.9 412.077 188.235 407.653 179.093 399.72C178.975 399.536 178.92 399.319 178.937 399.101C178.953 398.883 179.041 398.677 179.186 398.514C179.331 398.351 179.526 398.239 179.74 398.197C179.955 398.155 180.177 398.184 180.373 398.28C188.373 405.42 202.653 412.18 218.583 409.78C218.724 409.718 218.876 409.69 219.03 409.697C219.183 409.704 219.332 409.746 219.467 409.82C219.601 409.894 219.716 409.998 219.804 410.124C219.892 410.25 219.95 410.394 219.973 410.546C219.996 410.698 219.983 410.853 219.937 410.999C219.891 411.145 219.811 411.278 219.705 411.389C219.599 411.5 219.468 411.584 219.324 411.636C219.18 411.689 219.025 411.707 218.873 411.69C216.599 412.03 214.303 412.201 212.003 412.2Z" fill="black"/>
<path d="M209.483 415.06C197.693 415.06 187.623 410.42 178.833 400.96C178.662 400.775 178.566 400.532 178.566 400.28C178.566 400.028 178.662 399.785 178.833 399.6C179.019 399.426 179.264 399.329 179.518 399.329C179.773 399.329 180.018 399.426 180.203 399.6C189.933 410.08 201.303 414.37 214.953 412.75C215.096 412.69 215.25 412.664 215.405 412.674C215.559 412.685 215.709 412.73 215.843 412.808C215.976 412.886 216.09 412.994 216.175 413.123C216.26 413.252 216.314 413.399 216.332 413.553C216.351 413.706 216.334 413.862 216.282 414.008C216.23 414.154 216.145 414.285 216.033 414.393C215.922 414.5 215.787 414.58 215.64 414.626C215.492 414.673 215.336 414.684 215.183 414.66C213.293 414.908 211.39 415.042 209.483 415.06Z" fill="black"/>
<path d="M192.06 416.22C191.811 416.221 191.571 416.13 191.386 415.963C191.201 415.797 191.085 415.567 191.06 415.32C190.22 404.04 194.11 386.08 204.67 371.39C204.84 371.252 205.05 371.173 205.269 371.166C205.488 371.159 205.703 371.224 205.882 371.351C206.06 371.479 206.192 371.661 206.256 371.87C206.321 372.079 206.315 372.304 206.24 372.51C196 386.82 192.21 404.25 193 415.18C193.001 415.427 192.911 415.666 192.747 415.851C192.582 416.035 192.356 416.153 192.11 416.18L192.06 416.22Z" fill="black"/>
<path d="M182.472 407.27C182.288 407.269 182.108 407.217 181.952 407.12C181.743 406.977 181.596 406.761 181.54 406.514C181.484 406.267 181.524 406.009 181.652 405.79C185.012 400.48 197.492 382.67 217.052 376.42C217.295 376.352 217.554 376.378 217.779 376.493C218.003 376.608 218.176 376.803 218.262 377.04C218.33 377.283 218.304 377.542 218.189 377.767C218.074 377.991 217.879 378.164 217.642 378.25C198.702 384.31 186.552 401.65 183.282 406.82C183.193 406.955 183.073 407.066 182.932 407.145C182.791 407.223 182.633 407.266 182.472 407.27Z" fill="black"/>
<path d="M182.473 407.27C182.35 407.271 182.227 407.247 182.113 407.2C181.882 407.098 181.698 406.913 181.598 406.681C181.497 406.449 181.489 406.188 181.573 405.95C184.531 398.679 189.004 392.121 194.694 386.714C200.384 381.306 207.161 377.173 214.573 374.59C214.792 374.574 215.01 374.631 215.193 374.751C215.376 374.872 215.515 375.049 215.588 375.256C215.661 375.463 215.663 375.688 215.596 375.896C215.528 376.105 215.394 376.285 215.213 376.41C208.054 378.899 201.508 382.885 196.011 388.103C190.514 393.321 186.192 399.65 183.333 406.67C183.259 406.84 183.14 406.986 182.988 407.092C182.836 407.198 182.658 407.259 182.473 407.27Z" fill="black"/>
<path d="M189.21 414.54C188.967 414.542 188.732 414.456 188.548 414.298C188.364 414.14 188.244 413.92 188.21 413.68C185.79 392.84 192.63 380.92 200.39 371.15C200.553 370.958 200.783 370.835 201.033 370.805C201.284 370.776 201.536 370.842 201.74 370.99C201.934 371.154 202.059 371.386 202.089 371.638C202.119 371.891 202.051 372.145 201.9 372.35C194.4 381.8 187.79 393.35 190.13 413.46C190.15 413.713 190.074 413.964 189.916 414.163C189.758 414.361 189.531 414.493 189.28 414.53L189.21 414.54Z" fill="black"/>
<path d="M186.532 412.36C186.323 412.355 186.121 412.285 185.954 412.159C185.788 412.034 185.664 411.859 185.602 411.66C182.602 400.61 184.832 383.33 197.072 371.48C197.257 371.308 197.5 371.213 197.752 371.213C198.004 371.213 198.247 371.308 198.432 371.48C198.606 371.665 198.703 371.91 198.703 372.165C198.703 372.419 198.606 372.664 198.432 372.85C187.282 383.64 184.482 400.27 187.482 411.12C187.542 411.366 187.506 411.626 187.382 411.847C187.257 412.068 187.054 412.233 186.812 412.31L186.532 412.36Z" fill="black"/>
<path d="M225.001 398.86C224.801 398.857 224.605 398.795 224.441 398.68C210.141 388.39 192.701 384.6 181.771 385.42C181.554 385.38 181.356 385.268 181.208 385.104C181.06 384.939 180.972 384.73 180.956 384.509C180.94 384.288 180.997 384.069 181.12 383.884C181.242 383.7 181.422 383.561 181.631 383.49C192.911 382.66 210.871 386.54 225.571 397.11C225.719 397.239 225.826 397.408 225.878 397.598C225.93 397.787 225.926 397.987 225.865 398.173C225.804 398.36 225.69 398.525 225.536 398.647C225.383 398.769 225.196 398.843 225.001 398.86Z" fill="black"/>
<path d="M225.202 396.19C225.067 396.193 224.934 396.166 224.812 396.11C211.992 390.42 192.592 389.67 179.692 394.35C179.566 394.44 179.422 394.499 179.269 394.524C179.117 394.549 178.961 394.538 178.814 394.492C178.667 394.447 178.532 394.368 178.42 394.261C178.308 394.155 178.223 394.024 178.17 393.88C178.117 393.735 178.098 393.579 178.116 393.426C178.133 393.273 178.185 393.126 178.268 392.996C178.352 392.866 178.464 392.758 178.597 392.678C178.729 392.599 178.878 392.552 179.032 392.54C192.352 387.7 212.362 388.48 225.592 394.35C225.819 394.461 225.995 394.653 226.086 394.889C226.177 395.124 226.175 395.386 226.082 395.62C226.002 395.787 225.878 395.929 225.722 396.03C225.567 396.13 225.387 396.186 225.202 396.19Z" fill="black"/>
<path d="M225.163 393.49C225.03 393.488 224.899 393.46 224.777 393.407C224.655 393.353 224.545 393.276 224.453 393.18C214.943 382.84 202.623 379.18 184.453 381.27C184.31 381.33 184.156 381.356 184.001 381.346C183.847 381.335 183.697 381.29 183.563 381.212C183.43 381.134 183.316 381.026 183.231 380.897C183.146 380.768 183.092 380.621 183.074 380.467C183.055 380.314 183.072 380.158 183.124 380.012C183.176 379.867 183.261 379.735 183.373 379.628C183.484 379.52 183.619 379.44 183.766 379.394C183.914 379.347 184.07 379.336 184.223 379.36C202.783 377.2 216.003 381.18 225.833 391.88C225.943 392.022 226.013 392.192 226.035 392.371C226.057 392.55 226.031 392.732 225.958 392.897C225.885 393.062 225.769 393.204 225.622 393.308C225.475 393.413 225.303 393.476 225.123 393.49H225.163Z" fill="black"/>
<path d="M224.441 389.57C224.185 389.564 223.942 389.46 223.761 389.28C211.871 377.42 195.101 375.71 187.511 378.28C187.291 378.294 187.073 378.236 186.89 378.113C186.706 377.991 186.569 377.812 186.498 377.603C186.428 377.394 186.428 377.168 186.499 376.96C186.57 376.751 186.707 376.572 186.891 376.45C194.941 373.72 212.661 375.45 225.121 387.91C225.292 388.095 225.388 388.338 225.388 388.59C225.388 388.842 225.292 389.085 225.121 389.27C224.941 389.454 224.698 389.561 224.441 389.57Z" fill="black"/>
<path d="M220.002 410.31C219.912 410.325 219.821 410.325 219.732 410.31C196.732 403.5 179.822 388.04 179.662 387.88C179.547 387.695 179.496 387.477 179.516 387.26C179.536 387.043 179.627 386.839 179.774 386.678C179.921 386.517 180.117 386.409 180.331 386.369C180.546 386.33 180.767 386.362 180.962 386.46C181.132 386.62 197.732 401.78 220.282 408.46C220.474 408.552 220.632 408.704 220.733 408.893C220.833 409.081 220.87 409.297 220.839 409.508C220.807 409.72 220.709 409.915 220.559 410.067C220.408 410.218 220.213 410.318 220.002 410.35V410.31Z" fill="black"/>
<path d="M220.46 409.72C220.329 409.718 220.2 409.691 220.08 409.64C206.163 403.426 192.83 395.98 180.24 387.39C180.094 387.339 179.962 387.254 179.854 387.143C179.746 387.033 179.665 386.898 179.618 386.751C179.571 386.603 179.558 386.447 179.582 386.294C179.606 386.141 179.664 385.995 179.754 385.869C179.843 385.742 179.961 385.638 180.097 385.565C180.233 385.492 180.385 385.451 180.54 385.447C180.694 385.442 180.848 385.473 180.989 385.538C181.129 385.603 181.253 385.699 181.35 385.82C193.829 394.333 207.045 401.713 220.84 407.87C221.018 407.976 221.159 408.135 221.243 408.325C221.326 408.515 221.349 408.727 221.307 408.93C221.265 409.133 221.162 409.319 221.01 409.46C220.858 409.602 220.666 409.692 220.46 409.72Z" fill="black"/>
<path d="M221.311 408.53C221.154 408.533 220.999 408.495 220.861 408.42C201.191 397.84 180.571 387.57 180.371 387.47C180.207 387.325 180.096 387.13 180.054 386.915C180.012 386.701 180.041 386.478 180.138 386.282C180.234 386.085 180.392 385.926 180.588 385.828C180.784 385.73 181.006 385.699 181.221 385.74C181.431 385.84 202.081 396.13 221.771 406.74C221.936 406.857 222.062 407.021 222.132 407.211C222.202 407.4 222.213 407.607 222.163 407.803C222.113 407.999 222.005 408.176 221.853 408.309C221.701 408.442 221.512 408.526 221.311 408.55V408.53Z" fill="black"/>
<path d="M222.003 407.47C221.789 407.474 221.58 407.403 221.413 407.27C203.553 393.27 181.103 386.77 180.873 386.71C180.683 386.597 180.536 386.425 180.454 386.22C180.372 386.015 180.361 385.788 180.421 385.576C180.482 385.363 180.611 385.177 180.788 385.046C180.966 384.914 181.182 384.846 181.403 384.85C181.633 384.92 204.403 391.5 222.603 405.75C222.795 405.913 222.918 406.143 222.948 406.394C222.977 406.644 222.911 406.896 222.763 407.1C222.674 407.217 222.559 407.311 222.427 407.375C222.295 407.44 222.15 407.472 222.003 407.47Z" fill="black"/>
<path d="M223.84 403.59C223.619 403.589 223.405 403.516 223.23 403.38C206.87 389.94 181.23 386.77 181.01 386.74C180.805 386.659 180.633 386.512 180.52 386.322C180.407 386.132 180.36 385.911 180.386 385.691C180.412 385.472 180.51 385.268 180.665 385.11C180.819 384.953 181.022 384.851 181.24 384.82C181.5 384.82 207.65 388.09 224.46 401.89C224.648 402.058 224.765 402.289 224.789 402.54C224.813 402.79 224.742 403.04 224.59 403.24C224.498 403.349 224.383 403.436 224.253 403.496C224.124 403.557 223.983 403.589 223.84 403.59Z" fill="black"/>
<path d="M193.691 417C193.498 416.979 193.316 416.903 193.166 416.781C193.016 416.659 192.904 416.496 192.845 416.312C192.786 416.128 192.781 415.93 192.832 415.744C192.882 415.557 192.986 415.389 193.131 415.26C211.361 402.07 221.771 383.77 221.871 383.59C221.908 383.441 221.98 383.303 222.08 383.186C222.18 383.069 222.306 382.977 222.447 382.917C222.588 382.857 222.742 382.83 222.895 382.838C223.049 382.847 223.198 382.891 223.332 382.966C223.466 383.042 223.58 383.147 223.667 383.274C223.753 383.402 223.809 383.547 223.83 383.699C223.851 383.851 223.837 384.006 223.789 384.152C223.74 384.298 223.659 384.431 223.551 384.54C223.451 384.72 212.831 403.39 194.261 416.82C194.093 416.937 193.894 416.999 193.691 417Z" fill="black"/>
</g>
</svg>
