<svg width="500" height="500" viewBox="0 0 500 500" fill="none" xmlns="http://www.w3.org/2000/svg">
<path d="M141.502 158.12C64.6015 203 60.0015 354.53 169.382 351.63C218.292 350.33 232.582 299.04 276.722 281.04C318.162 264.13 353.892 298.04 395.722 259.64C445.012 214.44 452.092 103.89 378.832 96.5C346.932 93.28 334.632 125.13 306.762 132.18C250.262 146.48 198.642 124.79 141.502 158.12Z" fill="#00B2FF" fill-opacity="0.2"/>
<path opacity="0.9" d="M141.502 158.12C64.6015 203 60.0015 354.53 169.382 351.63C218.292 350.33 232.582 299.04 276.722 281.04C318.162 264.13 353.892 298.04 395.722 259.64C445.012 214.44 452.092 103.89 378.832 96.5C346.932 93.28 334.632 125.13 306.762 132.18C250.262 146.48 198.642 124.79 141.502 158.12Z" fill="#272F34" fill-opacity="0.15"/>
<path d="M249.999 427.56C357.082 427.56 443.889 422.492 443.889 416.24C443.889 409.988 357.082 404.92 249.999 404.92C142.917 404.92 56.1094 409.988 56.1094 416.24C56.1094 422.492 142.917 427.56 249.999 427.56Z" fill="#00B2FF" fill-opacity="0.23"/>
<path d="M48.8594 150.56L276.829 183.38L307.419 214.25L48.8594 150.56Z" fill="#00B2FF"/>
<path opacity="0.6" d="M48.8594 150.56L276.829 183.38L307.419 214.25L48.8594 150.56Z" fill="white"/>
<path d="M48.8594 150.56L276.829 183.38L266.249 228.02L48.8594 150.56Z" fill="#00B2FF"/>
<path opacity="0.2" d="M48.8594 150.56L276.829 183.38L266.249 228.02L48.8594 150.56Z" fill="black"/>
<path d="M261.571 98.88L274.801 160.88C275.145 162.499 274.833 164.188 273.933 165.578C273.033 166.967 271.619 167.942 270.001 168.29L151.921 193.49C150.302 193.831 148.614 193.518 147.226 192.619C145.837 191.719 144.861 190.307 144.511 188.69L131.271 126.69C130.93 125.07 131.245 123.381 132.146 121.992C133.047 120.603 134.462 119.628 136.081 119.28L254.161 94.08C255.781 93.7389 257.471 94.0535 258.859 94.9549C260.248 95.8564 261.223 97.2713 261.571 98.89V98.88Z" fill="#00B2FF"/>
<path opacity="0.4" d="M261.571 98.88L274.801 160.88C275.145 162.499 274.833 164.188 273.933 165.578C273.033 166.967 271.619 167.942 270.001 168.29L151.921 193.49C150.302 193.831 148.614 193.518 147.226 192.619C145.837 191.719 144.861 190.307 144.511 188.69L131.271 126.69C130.93 125.07 131.245 123.381 132.146 121.992C133.047 120.603 134.462 119.628 136.081 119.28L254.161 94.08C255.781 93.7389 257.471 94.0535 258.859 94.9549C260.248 95.8564 261.223 97.2713 261.571 98.89V98.88Z" fill="black"/>
<path d="M258.66 94.82L219.21 143.25C215.551 147.74 210.469 150.847 204.805 152.056C199.14 153.265 193.233 152.505 188.06 149.9L132.27 121.8C133.172 120.503 134.534 119.599 136.08 119.27L254.16 94.07C255.7 93.742 257.308 94.01 258.66 94.82Z" fill="#00B2FF"/>
<path d="M48.8594 150.56L236.889 195.25L266.249 228.02L48.8594 150.56Z" fill="#00B2FF"/>
<path opacity="0.6" d="M48.8594 150.56L236.889 195.25L266.249 228.02L48.8594 150.56Z" fill="white"/>
<path d="M117.447 193.635L116.941 194.498L137.866 206.755L138.371 205.892L117.447 193.635Z" fill="#00B2FF"/>
<path d="M147.611 211.295L147.105 212.158L154.63 216.566L155.135 215.703L147.611 211.295Z" fill="#00B2FF"/>
<path d="M48.8594 150.56L236.889 195.25L200.339 239.3L48.8594 150.56Z" fill="#00B2FF"/>
<path d="M300.359 255.26C300.105 255.261 299.854 255.213 299.619 255.12L268.999 243C268.509 242.803 268.117 242.419 267.908 241.934C267.7 241.449 267.692 240.901 267.886 240.41C268.08 239.919 268.461 239.524 268.945 239.312C269.428 239.101 269.976 239.089 270.469 239.28L301.099 251.4C301.532 251.571 301.892 251.888 302.116 252.297C302.341 252.705 302.416 253.179 302.328 253.636C302.24 254.094 301.995 254.507 301.636 254.803C301.276 255.099 300.825 255.261 300.359 255.26Z" fill="#00B2FF"/>
<path opacity="0.3" d="M300.359 255.26C300.105 255.261 299.854 255.213 299.619 255.12L268.999 243C268.509 242.803 268.117 242.419 267.908 241.934C267.7 241.449 267.692 240.901 267.886 240.41C268.08 239.919 268.461 239.524 268.945 239.312C269.428 239.101 269.976 239.089 270.469 239.28L301.099 251.4C301.532 251.571 301.892 251.888 302.116 252.297C302.341 252.705 302.416 253.179 302.328 253.636C302.24 254.094 301.995 254.507 301.636 254.803C301.276 255.099 300.825 255.261 300.359 255.26Z" fill="black"/>
<path d="M298.551 237.7C298.3 237.698 298.052 237.647 297.821 237.55L281.371 231C281.125 230.905 280.9 230.762 280.71 230.579C280.52 230.397 280.367 230.178 280.261 229.937C280.156 229.695 280.099 229.435 280.094 229.171C280.089 228.907 280.137 228.645 280.234 228.4C280.331 228.155 280.475 227.931 280.659 227.742C280.843 227.553 281.062 227.402 281.304 227.298C281.547 227.193 281.807 227.138 282.071 227.135C282.335 227.132 282.596 227.181 282.841 227.28L299.291 233.8C299.784 233.994 300.18 234.376 300.392 234.861C300.604 235.347 300.614 235.897 300.421 236.39C300.28 236.773 300.026 237.104 299.691 237.338C299.357 237.572 298.959 237.699 298.551 237.7Z" fill="#00B2FF"/>
<path opacity="0.5" d="M298.551 237.7C298.3 237.698 298.052 237.647 297.821 237.55L281.371 231C281.125 230.905 280.9 230.762 280.71 230.579C280.52 230.397 280.367 230.178 280.261 229.937C280.156 229.695 280.099 229.435 280.094 229.171C280.089 228.907 280.137 228.645 280.234 228.4C280.331 228.155 280.475 227.931 280.659 227.742C280.843 227.553 281.062 227.402 281.304 227.298C281.547 227.193 281.807 227.138 282.071 227.135C282.335 227.132 282.596 227.181 282.841 227.28L299.291 233.8C299.784 233.994 300.18 234.376 300.392 234.861C300.604 235.347 300.614 235.897 300.421 236.39C300.28 236.773 300.026 237.104 299.691 237.338C299.357 237.572 298.959 237.699 298.551 237.7Z" fill="white"/>
<path d="M264.159 255C263.909 254.997 263.662 254.95 263.429 254.86L233.559 243C233.313 242.905 233.088 242.762 232.898 242.579C232.707 242.397 232.555 242.178 232.449 241.937C232.343 241.695 232.286 241.435 232.282 241.171C232.277 240.907 232.324 240.645 232.421 240.4C232.518 240.155 232.663 239.931 232.846 239.742C233.03 239.553 233.249 239.402 233.492 239.298C233.734 239.193 233.995 239.138 234.258 239.135C234.522 239.132 234.784 239.181 235.029 239.28L264.899 251.1C265.332 251.271 265.692 251.588 265.916 251.997C266.141 252.405 266.215 252.879 266.128 253.337C266.04 253.794 265.795 254.207 265.436 254.503C265.076 254.8 264.624 254.961 264.159 254.96V255Z" fill="#00B2FF"/>
<path opacity="0.3" d="M264.159 255C263.909 254.997 263.662 254.95 263.429 254.86L233.559 243C233.313 242.905 233.088 242.762 232.898 242.579C232.707 242.397 232.555 242.178 232.449 241.937C232.343 241.695 232.286 241.435 232.282 241.171C232.277 240.907 232.324 240.645 232.421 240.4C232.518 240.155 232.663 239.931 232.846 239.742C233.03 239.553 233.249 239.402 233.492 239.298C233.734 239.193 233.995 239.138 234.258 239.135C234.522 239.132 234.784 239.181 235.029 239.28L264.899 251.1C265.332 251.271 265.692 251.588 265.916 251.997C266.141 252.405 266.215 252.879 266.128 253.337C266.04 253.794 265.795 254.207 265.436 254.503C265.076 254.8 264.624 254.961 264.159 254.96V255Z" fill="black"/>
<path d="M372.304 164.82C374.954 169.99 377.384 175.17 379.694 180.47C382.004 185.77 384.154 191.14 386.034 196.77L386.714 198.9C386.834 199.28 387.004 199.9 387.104 200.34C387.204 200.78 387.294 201.28 387.344 201.7C387.573 203.313 387.69 204.941 387.694 206.57C387.709 209.575 387.569 212.579 387.274 215.57C386.715 221.36 385.807 227.11 384.554 232.79L379.064 232.18C378.994 226.55 378.944 220.86 378.744 215.31C378.654 212.55 378.494 209.78 378.214 207.18C378.087 205.959 377.887 204.747 377.614 203.55C377.564 203.27 377.484 203.06 377.424 202.83C377.364 202.6 377.304 202.52 377.204 202.22L376.444 200.33C374.354 195.27 372.004 190.17 369.604 185.09L362.344 169.85L372.304 164.82Z" fill="#E4897B"/>
<path d="M379.142 230.42L376.582 235.21L384.762 237.49C384.762 237.49 386.322 233.64 384.462 230.6L379.142 230.42Z" fill="#E4897B"/>
<path d="M373.453 242.11L380.973 242.71L384.763 237.49L376.583 235.21L373.453 242.11Z" fill="#E4897B"/>
<path d="M337.873 130.26C337.763 130.85 337.353 131.26 336.973 131.18C336.593 131.1 336.383 130.57 336.503 129.99C336.623 129.41 337.023 128.99 337.403 129.07C337.783 129.15 338.003 129.68 337.873 130.26Z" fill="#263238"/>
<path d="M337.411 131.26C336.355 132.896 335.08 134.38 333.621 135.67C333.962 136.032 334.377 136.316 334.838 136.503C335.299 136.689 335.794 136.774 336.291 136.75L337.411 131.26Z" fill="#DE5753"/>
<path d="M340.652 127.47C340.558 127.468 340.468 127.428 340.402 127.36C340.115 127.031 339.754 126.775 339.349 126.612C338.945 126.448 338.507 126.383 338.072 126.42C337.989 126.421 337.909 126.392 337.845 126.339C337.781 126.286 337.738 126.212 337.724 126.131C337.71 126.049 337.725 125.965 337.766 125.894C337.808 125.822 337.874 125.768 337.952 125.74C338.508 125.67 339.073 125.738 339.597 125.938C340.12 126.139 340.586 126.466 340.952 126.89C341.016 126.955 341.052 127.043 341.052 127.135C341.052 127.227 341.016 127.315 340.952 127.38C340.912 127.417 340.864 127.444 340.812 127.459C340.761 127.475 340.706 127.479 340.652 127.47Z" fill="#263238"/>
<path d="M354.411 138.43C353.361 143.81 352.311 153.65 356.071 157.24C356.071 157.24 354.601 162.69 344.611 162.69C333.611 162.69 339.371 157.24 339.371 157.24C345.371 155.81 345.201 151.36 344.161 147.19L354.411 138.43Z" fill="#E4897B"/>
<path d="M357.581 160.63C358.371 158 359.241 154.99 357.441 154.04C355.441 153.04 344.571 151.94 340.821 153.89C337.071 155.84 338.141 161.19 338.141 161.19L357.581 160.63Z" fill="#263238"/>
<path d="M380.64 410C380.329 410.041 380.014 410.02 379.712 409.938C379.409 409.855 379.127 409.713 378.88 409.52C378.793 409.399 378.746 409.254 378.746 409.105C378.746 408.956 378.793 408.811 378.88 408.69C378.937 408.586 379.016 408.496 379.111 408.425C379.206 408.355 379.314 408.305 379.43 408.28C380.51 408.04 382.53 409.42 382.62 409.48C382.646 409.502 382.666 409.529 382.678 409.561C382.69 409.592 382.694 409.626 382.69 409.66C382.684 409.692 382.669 409.722 382.646 409.745C382.622 409.769 382.592 409.784 382.56 409.79C381.929 409.926 381.286 409.996 380.64 410ZM379.72 408.6H379.51C379.442 408.614 379.378 408.643 379.323 408.684C379.268 408.726 379.222 408.779 379.19 408.84C379.03 409.12 379.13 409.24 379.19 409.28C379.5 409.7 381 409.7 382.1 409.52C381.383 409.047 380.57 408.739 379.72 408.62V408.6Z" fill="#00B2FF"/>
<path d="M382.522 409.82H382.442C381.682 409.4 380.212 407.82 380.362 406.98C380.388 406.85 380.458 406.733 380.56 406.649C380.662 406.566 380.79 406.52 380.922 406.52C381.054 406.506 381.187 406.518 381.314 406.556C381.441 406.593 381.56 406.656 381.662 406.74C382.512 407.44 382.662 409.56 382.662 409.65C382.666 409.682 382.661 409.714 382.647 409.742C382.632 409.771 382.61 409.794 382.582 409.81C382.563 409.818 382.543 409.821 382.522 409.82ZM381.042 406.82H381.002C380.772 406.82 380.752 406.96 380.742 407C380.652 407.49 381.592 408.7 382.342 409.27C382.292 408.435 381.992 407.633 381.482 406.97C381.415 406.917 381.338 406.879 381.255 406.856C381.173 406.834 381.087 406.828 381.002 406.84L381.042 406.82Z" fill="#00B2FF"/>
<path d="M336.53 410C335.59 410 334.68 409.87 334.37 409.45C334.292 409.339 334.25 409.206 334.25 409.07C334.25 408.934 334.292 408.801 334.37 408.69C334.431 408.587 334.512 408.498 334.608 408.427C334.705 408.357 334.814 408.307 334.93 408.28C336.14 407.95 338.72 409.41 338.83 409.47C338.86 409.489 338.883 409.516 338.897 409.548C338.911 409.58 338.916 409.615 338.91 409.65C338.905 409.685 338.888 409.717 338.863 409.742C338.838 409.768 338.805 409.784 338.77 409.79C338.032 409.929 337.282 409.999 336.53 410ZM335.36 408.58C335.251 408.564 335.14 408.564 335.03 408.58C334.96 408.594 334.893 408.622 334.835 408.664C334.776 408.705 334.727 408.758 334.69 408.82C334.56 409.04 334.61 409.14 334.69 409.2C335.02 409.66 336.88 409.69 338.26 409.5C337.361 409.015 336.376 408.709 335.36 408.6V408.58Z" fill="#00B2FF"/>
<path d="M338.751 409.82H338.681C337.791 409.43 336.041 407.82 336.171 407.01C336.171 406.81 336.341 406.57 336.821 406.52C336.999 406.493 337.182 406.506 337.355 406.558C337.528 406.609 337.687 406.699 337.821 406.82C338.761 407.58 338.951 409.56 338.961 409.65C338.965 409.68 338.96 409.711 338.948 409.74C338.936 409.768 338.916 409.792 338.891 409.81C338.87 409.821 338.846 409.828 338.822 409.83C338.798 409.832 338.774 409.828 338.751 409.82ZM336.961 406.82H336.851C336.541 406.82 336.521 406.98 336.511 407.02C336.431 407.52 337.631 408.77 338.511 409.31C338.424 408.47 338.074 407.679 337.511 407.05C337.368 406.926 337.189 406.853 337.001 406.84L336.961 406.82Z" fill="#00B2FF"/>
<path d="M346.83 409.64H339.48L338.75 392.63H346.1L346.83 409.64Z" fill="#E4897B"/>
<path d="M390.942 409.64H383.592L379.902 392.63H387.242L390.942 409.64Z" fill="#E4897B"/>
<path d="M383.073 408.79H391.323C391.471 408.791 391.613 408.842 391.728 408.935C391.842 409.027 391.922 409.156 391.953 409.3L393.403 415.83C393.437 415.989 393.433 416.153 393.394 416.311C393.355 416.469 393.281 416.615 393.177 416.74C393.073 416.865 392.942 416.965 392.795 417.033C392.647 417.1 392.486 417.133 392.323 417.13C389.443 417.08 388.043 416.91 384.413 416.91C382.183 416.91 377.583 417.15 374.493 417.15C371.403 417.15 371.013 414.15 372.273 413.82C377.933 412.58 380.063 410.87 381.873 409.25C382.202 408.953 382.63 408.789 383.073 408.79Z" fill="#263238"/>
<path d="M339.533 408.79H347.533C347.68 408.791 347.823 408.842 347.937 408.935C348.051 409.027 348.131 409.156 348.163 409.3L349.613 415.83C349.647 415.988 349.646 416.151 349.609 416.308C349.571 416.465 349.499 416.611 349.397 416.736C349.295 416.861 349.166 416.962 349.02 417.03C348.874 417.098 348.714 417.132 348.553 417.13C345.663 417.08 341.483 416.91 337.843 416.91C333.593 416.91 329.913 417.15 324.923 417.15C321.923 417.15 321.073 414.15 322.333 413.82C328.083 412.56 332.773 412.43 337.743 409.37C338.272 409.01 338.893 408.809 339.533 408.79Z" fill="#263238"/>
<path d="M336.002 170.14C329.859 169.664 323.747 168.853 317.692 167.71C314.692 167.13 311.632 166.48 308.592 165.66C305.476 164.863 302.416 163.86 299.432 162.66C298.662 162.34 297.882 161.99 297.112 161.66C296.246 161.233 295.41 160.745 294.612 160.2C293.172 159.25 291.932 158.26 290.702 157.28C288.252 155.28 285.982 153.28 283.702 151.23C279.232 147.09 274.992 142.81 270.902 138.31L274.582 134.2L289.092 144.63C291.482 146.35 293.902 148.04 296.282 149.63C297.462 150.42 298.672 151.16 299.782 151.79C300.246 152.055 300.727 152.289 301.222 152.49C301.812 152.72 302.412 152.95 303.042 153.17C308.447 154.834 313.974 156.071 319.572 156.87C325.282 157.77 331.182 158.51 336.882 159.11L336.002 170.14Z" fill="#E4897B"/>
<path d="M369.222 158.9C376.112 160.48 383.072 180.61 383.072 180.61L368.902 190.78C368.902 190.78 364.902 181.4 361.042 173.2C357.002 164.61 362.182 157.29 369.222 158.9Z" fill="#00B2FF"/>
<path opacity="0.4" d="M369.222 158.9C376.112 160.48 383.072 180.61 383.072 180.61L368.902 190.78C368.902 190.78 364.902 181.4 361.042 173.2C357.002 164.61 362.182 157.29 369.222 158.9Z" fill="black"/>
<path d="M365.251 169.9L362.441 176.19C365.351 182.47 368.011 188.69 368.721 190.35C368.621 182.92 367.211 173.7 365.251 169.9Z" fill="#00B2FF"/>
<path opacity="0.6" d="M365.251 169.9L362.441 176.19C365.351 182.47 368.011 188.69 368.721 190.35C368.621 182.92 367.211 173.7 365.251 169.9Z" fill="black"/>
<path d="M328.071 159.28C328.071 159.28 320.251 168.11 327.631 222.78H366.921C367.201 216.78 363.411 187.32 369.221 158.9C364.878 158.064 360.485 157.509 356.071 157.24C350.509 156.92 344.933 156.92 339.371 157.24C335.557 157.624 331.778 158.306 328.071 159.28Z" fill="#00B2FF"/>
<path opacity="0.4" d="M328.071 159.28C328.071 159.28 320.251 168.11 327.631 222.78H366.921C367.201 216.78 363.411 187.32 369.221 158.9C364.878 158.064 360.485 157.509 356.071 157.24C350.509 156.92 344.933 156.92 339.371 157.24C335.557 157.624 331.778 158.306 328.071 159.28Z" fill="black"/>
<path d="M325.16 169.9C324.9 171.97 324.7 174.42 324.57 177.31C328.45 176.145 332.137 174.413 335.51 172.17L325.16 169.9Z" fill="#00B2FF"/>
<path opacity="0.6" d="M325.16 169.9C324.9 171.97 324.7 174.42 324.57 177.31C328.45 176.145 332.137 174.413 335.51 172.17L325.16 169.9Z" fill="black"/>
<path d="M342 171C336.74 175.66 316.66 175.19 316.66 175.19L316 155.75C322.781 156.716 329.621 157.21 336.47 157.23C347.66 157 347.74 165.86 342 171Z" fill="#00B2FF"/>
<path opacity="0.4" d="M342 171C336.74 175.66 316.66 175.19 316.66 175.19L316 155.75C322.781 156.716 329.621 157.21 336.47 157.23C347.66 157 347.74 165.86 342 171Z" fill="black"/>
<path d="M274.773 134.24L269.773 128.35L264.383 134.35C264.383 134.35 267.703 139.93 272.973 139.05L274.773 134.24Z" fill="#E4897B"/>
<path d="M262.612 121.48L260.672 129.17L264.342 134.31L269.732 128.35L262.612 121.48Z" fill="#E4897B"/>
<path d="M338.75 392.64L339.13 401.4H346.48L346.1 392.64H338.75Z" fill="#CE6F64"/>
<path d="M387.252 392.64H379.902L381.802 401.4H389.152L387.252 392.64Z" fill="#CE6F64"/>
<path d="M343.173 123C336.583 120 334.503 106.67 353.463 110C353.463 110 350.603 113.16 356.403 115.16C362.203 117.16 357.353 129.51 343.173 123Z" fill="#263238"/>
<path d="M357.493 133C355.603 140 354.863 144.26 350.493 147.19C343.953 151.59 335.823 146.54 335.563 139.07C335.333 132.36 338.463 121.97 346.013 120.55C347.679 120.223 349.401 120.329 351.015 120.857C352.63 121.385 354.081 122.318 355.233 123.566C356.384 124.815 357.196 126.337 357.592 127.989C357.987 129.64 357.953 131.365 357.493 133Z" fill="#E4897B"/>
<path d="M353.203 113.5C357.693 116 363.773 117.5 363.203 121.06C362.453 125.41 366.873 122.69 365.843 129.16C365.173 133.39 357.373 146.21 351.843 145.59C343.583 144.59 344.633 132.03 344.603 125.41C344.583 121.5 344.403 108.57 353.203 113.5Z" fill="#263238"/>
<path d="M343.612 119.11C341.612 119.58 338.962 131.11 346.712 132.17C355.622 133.38 343.612 119.11 343.612 119.11Z" fill="#263238"/>
<path d="M343.811 123.2C341.361 123.42 335.811 120.47 336.491 116.03C336.491 116 340.001 121.22 343.811 123.2Z" fill="#263238"/>
<path d="M347.45 133.09C346.698 134.739 345.422 136.092 343.82 136.94C341.71 138.04 340.52 136.44 341 134.32C341.43 132.42 343.05 129.55 345.22 129.32C347.39 129.09 348.32 131.09 347.45 133.09Z" fill="#E4897B"/>
<path d="M358.453 125C359.948 124.352 361.258 123.342 362.267 122.063C363.275 120.784 363.951 119.275 364.233 117.67C364.233 117.67 367.533 126.84 358.453 125Z" fill="#263238"/>
<path d="M366.792 124.85C366.096 124.383 365.295 124.095 364.461 124.013C363.627 123.931 362.785 124.057 362.012 124.38C362.012 124.38 365.092 120.39 366.792 124.85Z" fill="#263238"/>
<path d="M341.57 222.78C341.57 222.78 349.91 278.92 354.48 299.95C359.48 322.95 378.38 399.71 378.38 399.71H391.83C391.83 399.71 379.38 324.84 376.52 302C373.42 277.25 366.92 222.74 366.92 222.74L341.57 222.78Z" fill="#00B2FF"/>
<path opacity="0.5" d="M341.57 222.78C341.57 222.78 349.91 278.92 354.48 299.95C359.48 322.95 378.38 399.71 378.38 399.71H391.83C391.83 399.71 379.38 324.84 376.52 302C373.42 277.25 366.92 222.74 366.92 222.74L341.57 222.78Z" fill="white"/>
<path d="M376.232 394.75C376.172 394.75 377.622 399.92 377.622 399.92H392.762L392.482 395.31L376.232 394.75Z" fill="#00B2FF"/>
<path opacity="0.1" d="M376.232 394.75C376.172 394.75 377.622 399.92 377.622 399.92H392.762L392.482 395.31L376.232 394.75Z" fill="black"/>
<path d="M346.842 242.78C356.482 244.67 355.462 280.62 354.302 299.11C351.522 286.04 347.452 260.89 344.672 243.04C345.344 242.709 346.11 242.617 346.842 242.78Z" fill="#00B2FF"/>
<path opacity="0.4" d="M346.842 242.78C356.482 244.67 355.462 280.62 354.302 299.11C351.522 286.04 347.452 260.89 344.672 243.04C345.344 242.709 346.11 242.617 346.842 242.78Z" fill="white"/>
<path d="M327.631 222.78C327.631 222.78 326.631 277.7 327.421 300.11C328.251 323.41 336.421 399.71 336.421 399.71H348.861C348.861 399.71 349.321 324.77 349.861 301.89C350.471 276.94 353.481 222.78 353.481 222.78H327.631Z" fill="#00B2FF"/>
<path opacity="0.5" d="M327.631 222.78C327.631 222.78 326.631 277.7 327.421 300.11C328.251 323.41 336.421 399.71 336.421 399.71H348.861C348.861 399.71 349.321 324.77 349.861 301.89C350.471 276.94 353.481 222.78 353.481 222.78H327.631Z" fill="white"/>
<path d="M339 390.77C338.97 390.77 338.941 390.759 338.919 390.738C338.896 390.718 338.883 390.69 338.88 390.66C336.68 369.54 331.51 318.44 330.88 300.11C330.21 281.4 330.82 239.42 331.02 227C331.02 226.968 331.033 226.938 331.055 226.915C331.078 226.893 331.108 226.88 331.14 226.88C331.173 226.88 331.205 226.892 331.229 226.914C331.253 226.937 331.268 226.967 331.27 227C331.07 239.42 330.46 281.4 331.13 300.1C331.78 318.43 336.95 369.51 339.13 390.63C339.131 390.664 339.119 390.697 339.096 390.723C339.074 390.748 339.044 390.765 339.01 390.77H339Z" fill="#00B2FF"/>
<path opacity="0.4" d="M339 390.77C338.97 390.77 338.941 390.759 338.919 390.738C338.896 390.718 338.883 390.69 338.88 390.66C336.68 369.54 331.51 318.44 330.88 300.11C330.21 281.4 330.82 239.42 331.02 227C331.02 226.968 331.033 226.938 331.055 226.915C331.078 226.893 331.108 226.88 331.14 226.88C331.173 226.88 331.205 226.892 331.229 226.914C331.253 226.937 331.268 226.967 331.27 227C331.07 239.42 330.46 281.4 331.13 300.1C331.78 318.43 336.95 369.51 339.13 390.63C339.131 390.664 339.119 390.697 339.096 390.723C339.074 390.748 339.044 390.765 339.01 390.77H339Z" fill="white"/>
<path d="M334.002 394.75C333.952 394.75 334.712 399.92 334.712 399.92H349.842L350.252 395.31L334.002 394.75Z" fill="#00B2FF"/>
<path opacity="0.1" d="M334.002 394.75C333.952 394.75 334.712 399.92 334.712 399.92H349.842L350.252 395.31L334.002 394.75Z" fill="black"/>
</svg>
