<svg width="65" height="66" viewBox="0 0 65 66" fill="none" xmlns="http://www.w3.org/2000/svg">
<g clip-path="url(#clip0_833_800)">
<path d="M63.9941 29.3145V64.1598H6.36523V29.3145H18.4272H63.9941Z" fill="#FDB51E"/>
<path d="M18.4285 15.9123V22.6134V29.3143H6.36658V64.1597H1.00586V15.9123V11.2216L7.70683 4.52051H18.4285V15.9123Z" fill="#FFD311"/>
<path d="M63.9939 7.87124V8.5413H57.293V1.84033H57.963L63.9939 7.87124Z" fill="#AFB6BB"/>
<path d="M57.2937 8.5413V1.84033H18.4277V4.52069V15.9125V29.3145H63.9946V8.5413H57.2937Z" fill="#AFB6BB"/>
<path d="M63.9941 48.7473H6.36523V64.1597H63.9941V48.7473Z" fill="#FFC416"/>
<path d="M18.4285 4.52051H7.70683L1.00586 11.2216V15.9123H18.4285V4.52051Z" fill="#FDB51E"/>
<path d="M38.53 5.52588H21.7773V7.53618H38.53V5.52588Z" fill="white"/>
<path d="M25.1279 9.54639H21.7773V11.5567H25.1279V9.54639Z" fill="white"/>
<path d="M30.4892 9.54639H27.1387V11.5567H30.4892V9.54639Z" fill="white"/>
<path d="M38.5302 9.54639H35.1797V11.5567H38.5302V9.54639Z" fill="white"/>
<path d="M58.3802 0.834961H17.4227V3.51532H7.2899L0 10.8054V65.1649H65V7.4548L58.3802 0.834961ZM62.2384 7.53605H58.299V3.5967L62.2384 7.53605ZM2.0103 63.1546V11.6379L8.12246 5.52575H17.4227V14.9072H6.36594V16.9175H17.4227V28.3093H5.36085V63.1546H2.0103ZM62.9897 63.1546H7.37115V30.3196H62.9897V63.1546ZM19.433 28.3093V2.84526H56.2886V9.54636H62.9897V28.3093H19.433Z" fill="black"/>
<path d="M47.2432 16.2473H21.7793V18.2576H47.2432V16.2473Z" fill="white"/>
<path d="M60.6452 21.6082H21.7793V23.6185H60.6452V21.6082Z" fill="white"/>
<path d="M59.9744 57.7937H10.3867V59.804H59.9744V57.7937Z" fill="white"/>
<path d="M12.733 38.0257H10.7227V33.6699H15.7484V35.6802H12.733V38.0257Z" fill="white"/>
<path d="M59.639 38.0257H57.6287V35.6802H54.6133V33.6699H59.639V38.0257Z" fill="white"/>
</g>
<defs>
<clipPath id="clip0_833_800">
<rect width="65" height="65" fill="white" transform="translate(0 0.5)"/>
</clipPath>
</defs>
</svg>
