<svg width="65" height="66" viewBox="0 0 65 66" fill="none" xmlns="http://www.w3.org/2000/svg">
<path d="M58.5254 12.3459V61.8577H7.74414V36.467V12.3459H11.9996C11.9958 12.3485 11.992 12.351 11.9882 12.3536H57.087C57.1695 12.3536 57.252 12.351 57.3346 12.3459H58.5254Z" fill="#F0F1F1"/>
<path d="M9.07334 37.927V13.8059H13.3288C13.325 13.8084 13.3212 13.811 13.3174 13.8135H58.4162C58.4526 13.8135 58.489 13.8111 58.5254 13.8102V12.3459H57.3346C57.252 12.351 57.1695 12.3536 57.087 12.3536H11.9882C11.992 12.351 11.9958 12.3485 11.9996 12.3459H7.74414V36.467V61.8577H9.07334V37.927Z" fill="#DEE0E0"/>
<path d="M50.9082 51.7014H45.8301V55.51H50.9082V51.7014Z" fill="#FF7979"/>
<path d="M46.687 52.6377H50.9082V51.7014H45.8301V55.51H46.687V52.6377Z" fill="#D65B5B"/>
<path d="M50.9082 31.3889H45.8301V51.7014H50.9082V31.3889Z" fill="#FEBE76"/>
<path d="M46.7346 32.4363H50.9082V31.3889H45.8301V51.7014H46.7346V32.4363Z" fill="#E8A664"/>
<path d="M48.3691 23.7717L50.9082 31.3889H45.8301L48.3691 23.7717Z" fill="#57606F"/>
<path d="M48.8716 25.2793L48.3691 23.7717L45.8301 31.3889H46.8352L48.8716 25.2793Z" fill="#414A56"/>
<path d="M59.9096 5.5248C60.6256 6.25605 61.0648 7.26406 61.0648 8.37617C61.0648 10.4595 59.4398 12.2178 57.335 12.346H12C13.3381 11.5259 14.2115 10.0088 14.2115 8.31777C14.2115 6.68008 13.3927 5.21758 12.1054 4.34033H57.0874C58.1982 4.34033 59.1936 4.79355 59.9096 5.5248Z" fill="#FFEBBE"/>
<path d="M13.4034 5.65202H57.4988C58.6097 5.65202 59.605 6.10524 60.321 6.83649C60.6025 7.12404 60.8404 7.45476 61.0265 7.81733C60.9061 6.92841 60.5036 6.13114 59.9097 5.52456C59.1935 4.79331 58.1983 4.34009 57.0875 4.34009H12.1055C12.6215 4.69187 13.0605 5.13875 13.4034 5.65202Z" fill="#E5D0A8"/>
<path d="M14.6229 9.62956C14.6229 8.886 14.4526 8.17937 14.1478 7.54639C14.1883 7.79813 14.2115 8.05534 14.2115 8.31775C14.2115 10.0088 13.3381 11.5259 12 12.346H13.7834C14.3133 11.5741 14.6229 10.6331 14.6229 9.62956Z" fill="#E5D0A8"/>
<path d="M12.105 4.34035C13.3923 5.21759 14.2111 6.68009 14.2111 8.31779C14.2111 10.0088 13.3377 11.5259 11.9996 12.346H7.74414V36.4671H3.93555V9.80695C3.93555 6.47316 6.48984 3.87189 9.82363 4.16515L12.105 4.34035Z" fill="#F0DCA0"/>
<path d="M4.95117 10.7379C4.95117 7.40411 7.50547 4.80284 10.8393 5.0961L13.1206 5.27129C13.121 5.27155 13.1215 5.27193 13.1219 5.27231C12.8305 4.91709 12.4891 4.60225 12.105 4.34035L9.82363 4.16515C6.48984 3.87189 3.93555 6.47316 3.93555 9.80695V36.4671H4.95117V10.7379Z" fill="#DDC792"/>
<path d="M42.0215 17.4241H39.4824V19.9631H42.0215V17.4241Z" fill="black"/>
<path d="M36.9434 17.4241H34.4043V19.9631H36.9434V17.4241Z" fill="black"/>
<path d="M31.8652 17.4241H29.3262V19.9631H31.8652V17.4241Z" fill="black"/>
<path d="M26.7871 17.4241H24.248V19.9631H26.7871V17.4241Z" fill="black"/>
<path d="M58.5254 62.4924H7.74414C7.39362 62.4924 7.10938 62.2083 7.10938 61.8577V12.3459C7.10938 11.9954 7.39362 11.7112 7.74414 11.7112H58.5254C58.876 11.7112 59.1602 11.9954 59.1602 12.3459V61.8577C59.1602 62.2082 58.876 62.4924 58.5254 62.4924ZM8.37891 61.2229H57.8906V12.9807H8.37891V61.2229Z" fill="black"/>
<path d="M57.0871 12.9884H11.9883C11.6378 12.9884 11.3535 12.7041 11.3535 12.3536C11.3535 12.0031 11.6378 11.7188 11.9883 11.7188H57.0871C57.1567 11.7188 57.2261 11.7167 57.2957 11.7124C59.0532 11.6054 60.4298 10.1399 60.4298 8.37617C60.4298 7.46528 60.0838 6.61038 59.4558 5.96889C58.8283 5.32803 57.9871 4.9751 57.0871 4.9751H12.1051C11.7546 4.9751 11.4703 4.69085 11.4703 4.34033C11.4703 3.98981 11.7546 3.70557 12.1051 3.70557H57.0871C58.3313 3.70557 59.4945 4.19396 60.3629 5.08072C61.2248 5.96089 61.6993 7.13127 61.6993 8.37617C61.6993 10.8097 59.7991 12.8318 57.3733 12.9796C57.2786 12.9855 57.1822 12.9884 57.0871 12.9884Z" fill="black"/>
<path d="M7.74414 37.1018H3.93555C3.58503 37.1018 3.30078 36.8176 3.30078 36.467V9.80683C3.30078 7.95573 4.038 6.21888 5.3234 5.04165C6.55015 3.91798 8.16791 3.38224 9.87924 3.53268L12.1536 3.70724C12.2643 3.71575 12.3707 3.75307 12.4625 3.81566C13.9548 4.83268 14.8459 6.5157 14.8459 8.31767C14.8459 8.66819 14.5617 8.95244 14.2111 8.95244C13.8606 8.95244 13.5764 8.66819 13.5764 8.31767C13.5764 6.99063 12.9457 5.74738 11.8812 4.95963L9.77501 4.7979C8.41585 4.67818 7.14188 5.09763 6.18071 5.9778C5.15734 6.91535 4.57031 8.31094 4.57031 9.80683V35.8322H7.74414C8.09466 35.8322 8.37891 36.1163 8.37891 36.467C8.37891 36.8176 8.09466 37.1018 7.74414 37.1018Z" fill="black"/>
<path d="M11.9951 12.9819C11.7903 12.9819 11.5891 12.885 11.4672 12.7037C11.2717 12.4128 11.3433 12.0221 11.6343 11.8266C11.6416 11.8217 11.6606 11.8092 11.668 11.8046C12.8452 11.0832 13.5765 9.74699 13.5765 8.31763C13.5765 7.96711 13.8608 7.68286 14.2113 7.68286C14.5618 7.68286 14.8461 7.96711 14.8461 8.31763C14.8461 10.1843 13.8836 11.9343 12.3343 12.8853C12.2294 12.9505 12.1116 12.9819 11.9951 12.9819Z" fill="black"/>
<path d="M40.752 25.676H12.8223C12.4717 25.676 12.1875 25.3918 12.1875 25.0413C12.1875 24.6907 12.4717 24.4065 12.8223 24.4065H40.752C41.1026 24.4065 41.3867 24.6907 41.3867 25.0413C41.3867 25.3918 41.1026 25.676 40.752 25.676Z" fill="black"/>
<path d="M40.752 30.7542H12.8223C12.4717 30.7542 12.1875 30.4699 12.1875 30.1194C12.1875 29.7689 12.4717 29.4846 12.8223 29.4846H40.752C41.1026 29.4846 41.3867 29.7689 41.3867 30.1194C41.3867 30.4699 41.1026 30.7542 40.752 30.7542Z" fill="black"/>
<path d="M40.752 35.8323H12.8223C12.4717 35.8323 12.1875 35.5482 12.1875 35.1975C12.1875 34.8469 12.4717 34.5627 12.8223 34.5627H40.752C41.1026 34.5627 41.3867 34.8469 41.3867 35.1975C41.3867 35.5482 41.1026 35.8323 40.752 35.8323Z" fill="black"/>
<path d="M40.752 40.9104H12.8223C12.4717 40.9104 12.1875 40.6263 12.1875 40.2756C12.1875 39.925 12.4717 39.6409 12.8223 39.6409H40.752C41.1026 39.6409 41.3867 39.925 41.3867 40.2756C41.3867 40.6263 41.1026 40.9104 40.752 40.9104Z" fill="black"/>
<path d="M40.752 45.9885H12.8223C12.4717 45.9885 12.1875 45.7044 12.1875 45.3538C12.1875 45.0031 12.4717 44.719 12.8223 44.719H40.752C41.1026 44.719 41.3867 45.0031 41.3867 45.3538C41.3867 45.7044 41.1026 45.9885 40.752 45.9885Z" fill="black"/>
<path d="M40.752 51.0667H12.8223C12.4717 51.0667 12.1875 50.7825 12.1875 50.4319C12.1875 50.0812 12.4717 49.7971 12.8223 49.7971H40.752C41.1026 49.7971 41.3867 50.0812 41.3867 50.4319C41.3867 50.7825 41.1026 51.0667 40.752 51.0667Z" fill="black"/>
<path d="M40.7514 56.1448H32.4766C32.126 56.1448 31.8418 55.8607 31.8418 55.51C31.8418 55.1594 32.126 54.8752 32.4766 54.8752H40.7514C41.102 54.8752 41.3861 55.1594 41.3861 55.51C41.3861 55.8607 41.102 56.1448 40.7514 56.1448Z" fill="black"/>
<path d="M50.9082 52.3362C50.5576 52.3362 50.2734 52.0521 50.2734 51.7014V31.3889C50.2734 31.0384 50.5576 30.7542 50.9082 30.7542C51.2588 30.7542 51.543 31.0384 51.543 31.3889V51.7014C51.543 52.0519 51.2588 52.3362 50.9082 52.3362Z" fill="black"/>
<path d="M45.8301 52.3362C45.4794 52.3362 45.1953 52.0521 45.1953 51.7014V31.3889C45.1953 31.0384 45.4794 30.7542 45.8301 30.7542C46.1807 30.7542 46.4648 31.0384 46.4648 31.3889V51.7014C46.4648 52.0519 46.1807 52.3362 45.8301 52.3362Z" fill="black"/>
<path d="M50.9082 56.1448H45.8301C45.4794 56.1448 45.1953 55.8607 45.1953 55.51V51.7014C45.1953 51.3508 45.4794 51.0667 45.8301 51.0667H50.9082C51.2588 51.0667 51.543 51.3508 51.543 51.7014V55.51C51.543 55.8605 51.2588 56.1448 50.9082 56.1448ZM46.4648 54.8752H50.2734V52.3362H46.4648V54.8752Z" fill="black"/>
<path d="M50.9083 32.0237H45.8301C45.6261 32.0237 45.4345 31.9257 45.3151 31.76C45.1959 31.5945 45.1634 31.3817 45.2279 31.1882L47.7669 23.571C47.8534 23.3118 48.0959 23.137 48.3691 23.137C48.6423 23.137 48.8849 23.3118 48.9712 23.571L51.5103 31.1882C51.5749 31.3817 51.5424 31.5946 51.423 31.76C51.3038 31.9257 51.1123 32.0237 50.9083 32.0237ZM46.7109 30.7542H50.0276L48.3692 25.7791L46.7109 30.7542Z" fill="black"/>
<path d="M54.7168 52.3362H50.9082C50.5576 52.3362 50.2734 52.0521 50.2734 51.7014C50.2734 51.3508 50.5576 51.0667 50.9082 51.0667H54.082V42.8147C54.082 42.4641 54.3662 42.1799 54.7168 42.1799C55.0674 42.1799 55.3516 42.4641 55.3516 42.8147V51.7014C55.3516 52.0519 55.0674 52.3362 54.7168 52.3362Z" fill="black"/>
</svg>
