<svg width="60" height="60" viewBox="0 0 60 60" fill="none" xmlns="http://www.w3.org/2000/svg">
<path d="M27.9038 50.3625C26.0523 48.8765 8.85852 32.1562 8.66633 31.9734C7.90696 31.214 7.42883 30.4265 7.29758 29.7047C7.16164 28.9547 7.39133 28.2984 8.00071 27.689C8.56789 27.1219 9.26164 26.8219 10.007 26.8219C10.9163 26.8219 11.8491 27.2531 12.6273 28.0359L20.4226 35.5265C20.5585 35.6578 20.7366 35.7234 20.9101 35.7234C21.0481 35.7237 21.1832 35.6832 21.2983 35.607C21.4134 35.5308 21.5034 35.4222 21.557 35.295C21.6106 35.1678 21.6254 35.0275 21.5995 34.8919C21.5737 34.7563 21.5083 34.6314 21.4116 34.5328L8.96633 21.6797C7.71946 20.4328 7.13352 18.525 8.61477 17.0437C9.18196 16.4765 9.87571 16.1765 10.621 16.1765C11.5304 16.1765 12.4632 16.6078 13.2413 17.3906L25.9726 29.8031C26.1085 29.9344 26.2866 30.0047 26.4648 30.0047C26.6429 30.0047 26.8257 29.9344 26.9616 29.7984C27.2335 29.5265 27.2382 29.0859 26.9663 28.8094L11.6757 13.1344C10.9679 12.4265 10.5413 11.5781 10.4663 10.7531C10.396 9.91404 10.6913 9.13591 11.3241 8.5031C11.8913 7.93591 12.5851 7.63591 13.3304 7.63591C14.2398 7.63591 15.1726 8.06716 15.9507 8.84529L31.546 24.0515C31.682 24.1828 31.8601 24.2531 32.0382 24.2531C32.2163 24.2531 32.3992 24.1828 32.5351 24.0469C32.807 23.775 32.8116 23.3344 32.5398 23.0578L21.2148 11.4187C20.5023 10.7062 20.0757 9.86248 20.0054 9.03748C19.9351 8.19841 20.2304 7.42029 20.8632 6.78748C21.4304 6.22029 22.1241 5.92029 22.8695 5.92029C23.7788 5.92029 24.7116 6.35154 25.4898 7.13435C29.6429 11.2125 40.4851 21.8765 40.8507 22.2703C42.2429 23.2312 42.5242 21.7781 42.5945 20.8359C42.6742 19.739 41.4179 15.9094 42.1491 12.464C43.3773 7.88435 46.9163 8.63435 46.996 8.67185C48.9367 9.58123 48.5663 10.9406 47.8773 13.6734L47.807 14.2125C47.0851 17.7844 52.0445 28.3687 52.4101 29.1609C54.3554 33.4172 56.596 42.0469 49.1757 49.4672C41.0429 57.6 30.9741 53.4328 27.9038 50.3625Z" fill="url(#paint0_radial_793_762)"/>
<path d="M38.3396 54.9281C33.3521 54.9281 29.1099 52.5422 27.4365 50.8875C25.9318 49.6594 16.435 40.4906 8.70058 32.9859C8.38651 32.6812 8.2037 32.5078 8.18495 32.4844C7.30839 31.6078 6.76464 30.6937 6.60995 29.8312C6.43183 28.8515 6.73651 27.9656 7.50526 27.1922C8.20839 26.489 9.07089 26.1187 10.0084 26.1187C11.11 26.1187 12.2162 26.625 13.1256 27.539L20.9115 35.0203L8.46151 22.1672C7.02714 20.7328 6.30526 18.3562 8.11933 16.5468C8.82245 15.8437 9.68495 15.4734 10.6225 15.4734C11.724 15.4734 12.8303 15.9797 13.7396 16.8937L26.4615 29.2969L11.1756 13.6265C10.36 12.8109 9.85839 11.8125 9.76933 10.8187C9.68026 9.75935 10.0459 8.78904 10.8287 8.00623C11.5318 7.3031 12.3943 6.93279 13.3318 6.93279C14.4287 6.93279 15.535 7.43435 16.449 8.34841L32.0396 23.55L20.7146 11.9109C19.8943 11.0906 19.3928 10.0922 19.3084 9.09841C19.2193 8.04373 19.585 7.07341 20.3678 6.2906C21.0709 5.58748 21.9334 5.21716 22.8709 5.21716C23.9725 5.21716 25.0787 5.72341 25.9881 6.63748L29.3678 9.95154C35.3912 15.8578 40.4256 20.8031 40.9646 21.3562C41.2271 21.5672 41.5693 21.6468 41.7146 21.5765C41.8084 21.5297 41.9115 21.314 41.8928 20.8594C41.8646 20.0625 41.7521 19.0734 41.6349 18.0281C41.4006 15.9281 41.1568 13.7531 41.4615 12.3187C42.1271 9.82966 43.4349 8.77498 44.4099 8.32029C45.7506 7.70154 47.049 7.91716 47.2974 8.03435C49.7349 9.1781 49.2521 11.0906 48.5865 13.7437L48.5724 13.8093L48.4974 14.3578C48.0099 16.7578 50.5131 23.3906 53.0162 28.7953L53.0537 28.8703C54.7271 32.5265 57.7412 41.9062 49.6787 49.9687C45.9709 53.6672 41.9584 54.9281 38.3396 54.9281ZM10.0084 27.525C9.45526 27.525 8.93026 27.7547 8.49901 28.1859C8.0537 28.6312 7.89901 29.0625 7.99276 29.5781C8.09589 30.1453 8.51308 30.8203 9.16464 31.4765C9.16933 31.4812 9.35683 31.664 9.68026 31.9734C20.6584 42.6281 27.2865 48.9609 28.3459 49.814L28.4021 49.8656C30.9896 52.4531 40.6037 57.0469 48.6803 48.9703C56.1193 41.5312 53.3209 32.8453 51.7693 29.4515L51.7365 29.3812C50.124 25.9031 46.4584 17.4656 47.1099 14.1L47.2178 13.3969C47.9396 10.5281 47.9818 9.9281 46.7584 9.33748C46.3974 9.27185 43.8099 8.95779 42.8209 12.6469C42.5724 13.8234 42.8115 15.975 43.0224 17.8734C43.1443 18.9469 43.2568 19.964 43.2849 20.8125C43.3318 22.1484 42.699 22.6594 42.3146 22.8469C41.5318 23.2265 40.599 22.9031 40.0178 22.4156L39.9568 22.3594C39.6709 22.05 32.8693 15.3797 28.3693 10.964L24.9849 7.6406C23.8318 6.48279 22.3459 6.2906 21.3475 7.28904C20.86 7.77654 20.6396 8.34841 20.6912 8.98123C20.7475 9.64216 21.1037 10.3312 21.699 10.9265L33.0474 22.5656C33.3053 22.8308 33.4489 23.1867 33.4471 23.5566C33.4453 23.9265 33.2985 24.281 33.0381 24.5437C32.5178 25.064 31.599 25.0734 31.0646 24.5578L15.46 9.34685C14.3068 8.19373 12.8162 8.00154 11.8225 8.99998C11.335 9.48748 11.1146 10.0594 11.1662 10.6922C11.2271 11.3531 11.5834 12.0469 12.174 12.6328L27.4693 28.3172C28.0084 28.8609 28.0037 29.7515 27.46 30.2953C26.9396 30.8156 26.0209 30.825 25.4865 30.3094L12.7506 17.8922C11.5975 16.7297 10.1068 16.5422 9.11308 17.5406C7.89901 18.7547 8.54589 20.2593 9.46464 21.1828L21.9193 34.0453C22.1765 34.3093 22.3192 34.664 22.3166 35.0326C22.3139 35.4011 22.1662 35.7537 21.9053 36.014C21.3803 36.539 20.4709 36.5437 19.9365 36.0328L12.1412 28.5422C11.485 27.8812 10.7303 27.525 10.0084 27.525Z" fill="#EDA600"/>
<path d="M39.7307 21.8157C37.1573 27.0704 37.4901 34.425 41.3526 40.3266C41.7885 41.1235 42.5339 40.7344 42.1542 39.9141C37.4901 29.9344 42.3792 22.7438 42.3792 22.7438L39.7307 21.8157Z" fill="#EDA600"/>
<path d="M29.6113 2.10939C31.027 1.73908 32.5363 1.77189 34.0035 2.11408C35.4613 2.46564 36.9191 3.20626 38.002 4.41564C39.0613 5.61564 39.7129 7.07345 39.9332 8.60158C40.1395 10.1156 39.9473 11.6766 39.2301 12.9703C39.1457 11.5172 38.8926 10.1813 38.466 8.94845C38.2457 8.33439 37.9879 7.74845 37.6738 7.19533C37.3645 6.64689 36.9988 6.10314 36.6098 5.65783C35.8176 4.74376 34.7441 4.03126 33.5395 3.47814C32.3301 2.90626 31.0129 2.48439 29.6113 2.10939Z" fill="#B0BEC5"/>
<path d="M30 6.5531C30.7828 6.05623 31.7625 5.9531 32.6859 6.11716C33.6188 6.28123 34.5094 6.74529 35.2125 7.38748C35.9109 8.03904 36.4078 8.85935 36.7172 9.71248C36.8672 10.139 36.9422 10.589 37.0125 11.025C37.0359 11.475 37.0359 11.925 36.9656 12.375C36.6422 12.0328 36.3891 11.6906 36.15 11.3578C35.8734 11.0437 35.6578 10.7109 35.4094 10.4062C34.9219 9.80154 34.4484 9.2531 33.9375 8.7656C33.4125 8.29216 32.8594 7.87498 32.2172 7.51404C31.5797 7.14373 30.8625 6.83435 30 6.5531Z" fill="#90A4AE"/>
<path d="M3.20232 36.2532C3.86326 37.5469 4.55232 38.7469 5.35388 39.8063C6.15076 40.8657 7.06482 41.7657 8.12888 42.3516C8.64451 42.6375 9.25857 42.886 9.85857 43.0735C10.4633 43.2657 11.0914 43.3969 11.7383 43.486C13.032 43.6454 14.3914 43.6172 15.8304 43.3969C14.7148 44.3672 13.2242 44.8829 11.7054 44.9954C10.1679 45.0985 8.60701 44.7657 7.21013 43.9782C5.80388 43.1766 4.77263 41.9016 4.12576 40.5469C3.47888 39.1829 3.13201 37.7157 3.20232 36.2532Z" fill="#B0BEC5"/>
<path d="M7.63218 35.7047C8.08687 36.4922 8.53687 37.125 9.02906 37.6781C9.51656 38.2313 10.0416 38.686 10.6134 39.0985C11.1947 39.4969 11.8322 39.8485 12.5259 40.2C12.8728 40.3782 13.2431 40.5188 13.6087 40.725C13.9884 40.8891 14.3728 41.0625 14.7759 41.311C14.3494 41.4703 13.9134 41.5641 13.4681 41.6344C13.0275 41.6532 12.5728 41.6766 12.1228 41.6156C11.2228 41.4938 10.3228 41.1797 9.53531 40.6313C8.76187 40.0735 8.11968 39.3 7.76812 38.4235C7.41187 37.5516 7.30875 36.5766 7.63218 35.7047Z" fill="#90A4AE"/>
<defs>
<radialGradient id="paint0_radial_793_762" cx="0" cy="0" r="1" gradientUnits="userSpaceOnUse" gradientTransform="translate(20.646 17.8128) rotate(-45) scale(42.66)">
<stop offset="0.353" stop-color="#FFCA28"/>
<stop offset="0.872" stop-color="#FFB300"/>
</radialGradient>
</defs>
</svg>


