<svg width="65" height="66" viewBox="0 0 65 66" fill="none" xmlns="http://www.w3.org/2000/svg">
<g clip-path="url(#clip0_804_864)">
<path d="M25.657 30.2631V48.0525H3.76225C2.25074 48.0525 1.02539 46.8273 1.02539 45.3156V30.2631C1.02539 25.7285 4.70132 22.0525 9.23596 22.0525H17.4465C21.981 22.0525 25.657 25.7285 25.657 30.2631Z" fill="#90B5BF"/>
<path d="M13.3412 48.0525H3.76225C2.25074 48.0525 1.02539 46.8273 1.02539 45.3156V30.2631C1.02539 25.7285 4.70132 22.0525 9.23596 22.0525H13.3412V48.0525Z" fill="#769CA5"/>
<path d="M63.9735 48.0525V63.1051C63.9735 63.8608 63.3608 64.4735 62.6051 64.4735H3.76296C3.00721 64.4735 2.39453 63.8608 2.39453 63.1051V48.0525C2.39453 47.2968 3.00721 46.6841 3.76296 46.6841H62.6051C63.3608 46.6841 63.9735 47.2968 63.9735 48.0525Z" fill="#A89B80"/>
<path d="M18.8153 48.7369C18.8153 50.6262 17.2836 52.1579 15.3943 52.1579H12.6573C10.768 52.1579 9.23633 50.6262 9.23633 48.7369C9.23633 46.8475 10.768 45.3159 12.6573 45.3159H15.3942C17.2836 45.3158 18.8153 46.8475 18.8153 48.7369Z" fill="#E5E5E5"/>
<path d="M18.815 12.4737C18.815 15.4967 16.3642 17.9474 13.3412 17.9474C10.3182 17.9474 7.86753 15.4967 7.86753 12.4737C7.86753 9.4507 10.3182 7 13.3412 7C16.3642 7 18.815 9.4507 18.815 12.4737ZM13.3412 42.579H6.4991V34.3684C6.4991 33.6127 5.88643 33 5.13067 33H1.02539V42.579V45.3158C1.02539 46.8274 2.25062 48.0527 3.76225 48.0527H6.4991H13.3412C14.8527 48.0527 16.0781 46.8275 16.0781 45.3158C16.0781 43.8042 14.8527 42.579 13.3412 42.579Z" fill="#F4C064"/>
<path d="M13.3429 7V17.9474C10.3198 17.9474 7.86914 15.4967 7.86914 12.4737C7.86914 9.4507 10.3198 7 13.3429 7Z" fill="#F4AB53"/>
<path d="M59.8693 31.6316V56.2632C59.8693 57.7747 58.6441 59.0001 57.1324 59.0001H25.6587C24.1472 59.0001 22.9219 57.7748 22.9219 56.2632V31.6316C22.9219 30.1201 24.1471 28.8948 25.6587 28.8948H57.1324C58.6439 28.8948 59.8693 30.1201 59.8693 31.6316Z" fill="#C1C1C1"/>
<path d="M59.8682 31.6316V56.2632C59.8682 57.7747 58.643 59.0001 57.1314 59.0001H41.3945V28.8948H57.1314C58.6429 28.8948 59.8682 30.1201 59.8682 31.6316Z" fill="#DBDBDB"/>
<path d="M46.2793 47.955L46.8693 64.4738H35.9219L36.5118 47.955C36.5644 46.4825 37.7734 45.3159 39.2469 45.3159H43.5441C45.0177 45.3158 46.2267 46.4825 46.2793 47.955Z" fill="#F7F7F7"/>
<path d="M46.1832 16.5789V22.0526C46.1832 22.8083 45.5706 23.421 44.8148 23.421H39.3411C38.5853 23.421 37.9727 22.8083 37.9727 22.0526V16.5789C37.9727 15.8231 38.5853 15.2104 39.3411 15.2104H44.8148C45.5707 15.2104 46.1832 15.823 46.1832 16.5789Z" fill="#BBFFAB"/>
<path d="M59.8675 8.36843V12.4737C59.8675 13.2295 59.2549 13.8421 58.4991 13.8421H54.3938C53.6381 13.8421 53.0254 13.2295 53.0254 12.4737V8.36843C53.0254 7.61268 53.6381 7 54.3938 7H58.4991C59.2549 7 59.8675 7.61268 59.8675 8.36843Z" fill="#D199D1"/>
<path d="M37.9737 2.8948V5.63165C37.9737 6.3874 37.361 7.00008 36.6053 7.00008H33.8684C33.1127 7.00008 32.5 6.3874 32.5 5.63165V2.8948C32.5 2.13904 33.1127 1.52637 33.8684 1.52637H36.6053C37.361 1.52637 37.9737 2.13904 37.9737 2.8948Z" fill="#A7E5CB"/>
<path d="M54.3947 14.8684H58.5C59.8204 14.8684 60.8947 13.794 60.8947 12.4737V8.36843C60.8947 7.04799 59.8203 5.97371 58.5 5.97371H54.3947C53.0743 5.97371 52 7.04812 52 8.36843V12.4737C52 13.794 53.0744 14.8684 54.3947 14.8684ZM54.0526 8.36843C54.0526 8.17978 54.2059 8.02629 54.3947 8.02629H58.5C58.6887 8.02629 58.8421 8.17965 58.8421 8.36843V12.4737C58.8421 12.6624 58.6888 12.8159 58.5 12.8159H54.3947C54.2061 12.8159 54.0526 12.6625 54.0526 12.4737V8.36843ZM39.3421 14.1842H44.8158C46.1363 14.1842 47.2106 15.2586 47.2106 16.5789V22.0526C47.2106 23.373 46.1362 24.4473 44.8158 24.4473H39.3421C38.0217 24.4473 36.9474 23.3729 36.9474 22.0526V20.6842C36.9474 20.1172 37.4067 19.6579 37.9737 19.6579C38.5407 19.6579 39 20.1172 39 20.6842V22.0526C39 22.2412 39.1534 22.3947 39.3421 22.3947H44.8158C45.0045 22.3947 45.158 22.2414 45.158 22.0526V16.5789C45.158 16.3902 45.0046 16.2367 44.8158 16.2367H39.3421C39.1535 16.2367 39 16.3901 39 16.5789C39 17.1458 38.5407 17.6052 37.9737 17.6052C37.4067 17.6052 36.9474 17.1458 36.9474 16.5789C36.9474 15.2586 38.0217 14.1842 39.3421 14.1842ZM13.3421 18.9737C16.9262 18.9737 19.8421 16.0577 19.8421 12.4737C19.8421 8.8897 16.9262 5.97371 13.3421 5.97371C9.75813 5.97371 6.84214 8.8897 6.84214 12.4737C6.84214 16.0577 9.75813 18.9737 13.3421 18.9737ZM13.3421 8.02629C15.7944 8.02629 17.7896 10.0214 17.7896 12.4737C17.7896 14.9261 15.7944 16.9211 13.3421 16.9211C10.8899 16.9211 8.89472 14.9261 8.89472 12.4737C8.89472 10.0214 10.8899 8.02629 13.3421 8.02629ZM63.9737 45.6579H60.8947V31.6316C60.8947 29.5567 59.2065 27.8684 57.1316 27.8684H25.6579C23.5828 27.8684 21.8947 29.5567 21.8947 31.6316V45.6579H18.6066C18.1726 45.2046 17.6403 44.8412 17.0375 44.6024C16.7032 42.8672 15.1733 41.5526 13.342 41.5526H7.52629V33C7.52629 32.433 7.06672 31.9737 6.5 31.9737C5.93328 31.9737 5.47371 32.433 5.47371 33V42.579C5.47371 43.146 5.93328 43.6053 6.5 43.6053H13.3421C14.2854 43.6053 15.0527 44.3726 15.0527 45.3158C15.0527 46.2591 14.2854 47.0264 13.3421 47.0264H3.76314C2.81988 47.0264 2.05258 46.2591 2.05258 45.3158V30.2631C2.05258 26.3018 5.27528 23.079 9.23673 23.079H17.4473C19.5636 23.079 21.5627 24.0063 22.9321 25.623C23.2984 26.0552 23.946 26.1094 24.3784 25.7427C24.811 25.3763 24.8647 24.7289 24.4983 24.2963C22.7382 22.2183 20.1682 21.0264 17.4472 21.0264H9.23686C4.14362 21.0263 0 25.1699 0 30.2631V45.3157C0 47.3906 1.6881 49.0789 3.76314 49.0789H8.22352C8.39884 51.3719 10.3207 53.1842 12.6579 53.1842H15.3947C17.8469 53.1842 19.8421 51.1891 19.8421 48.7367C19.8421 48.3851 19.8011 48.0411 19.7229 47.7104H21.8947V56.263C21.8947 58.3379 23.5828 60.0262 25.6579 60.0262H35.0529L34.9305 63.4472H30.4473C29.8804 63.4472 29.421 63.9065 29.421 64.4735C29.421 65.0404 29.8806 65.4997 30.4473 65.4997H35.9163C35.92 65.4997 35.9235 65.4997 35.9267 65.4997H46.8626C46.8642 65.4997 46.8659 65.4997 46.8677 65.4997C46.8694 65.4997 46.8711 65.4997 46.8729 65.4997H52.342C52.909 65.4997 53.3683 65.0404 53.3683 64.4735C53.3683 63.9065 52.909 63.4472 52.342 63.4472H47.8588L47.7364 60.0262H57.1316C59.2065 60.0262 60.8947 58.3379 60.8947 56.263V47.7104H63.9737C64.5407 47.7104 65 47.2511 65 46.6842C65 46.1172 64.5407 45.6579 63.9737 45.6579ZM15.3947 51.1316H12.6579C11.4535 51.1316 10.4541 50.2379 10.2875 49.079H13.3421C14.8916 49.079 16.2252 48.1375 16.8015 46.7969C17.4083 47.2369 17.7894 47.9504 17.7894 48.7369C17.7894 50.0572 16.7152 51.1316 15.3947 51.1316ZM58.8421 56.2631C58.8421 57.2064 58.0748 57.9737 57.1316 57.9737H47.6633L47.3041 47.9184C47.2316 45.8836 45.5796 44.2894 43.5434 44.2894C42.9764 44.2894 42.5171 44.7488 42.5171 45.3157C42.5171 45.8827 42.9764 46.342 43.5434 46.342C44.469 46.342 45.2198 47.0665 45.2528 47.9915L45.8048 63.4473H36.9846L37.5366 47.9915C37.5696 47.0667 38.3205 46.342 39.246 46.342C39.813 46.342 40.2723 45.8827 40.2723 45.3157C40.2723 44.7488 39.813 44.2894 39.246 44.2894C37.2097 44.2894 35.5579 45.8833 35.4853 47.9184L35.1259 57.9737H25.6576C24.7143 57.9737 23.947 57.2064 23.947 56.2631V31.6316C23.947 30.6883 24.7143 29.921 25.6576 29.921H57.1313C58.0746 29.921 58.8419 30.6883 58.8419 31.6316V56.2631H58.8421ZM33.8684 8.02629H36.6053C37.9257 8.02629 39 6.95188 39 5.63157V2.89472C39 1.5744 37.9256 0.5 36.6053 0.5H33.8684C32.548 0.5 31.4737 1.5744 31.4737 2.89472V5.63157C31.4737 6.95201 32.548 8.02629 33.8684 8.02629ZM33.5263 2.89472C33.5263 2.70606 33.6796 2.55258 33.8684 2.55258H36.6053C36.7939 2.55258 36.9474 2.70594 36.9474 2.89472V5.63157C36.9474 5.82022 36.7941 5.97371 36.6053 5.97371H33.8684C33.6798 5.97371 33.5263 5.82035 33.5263 5.63157V2.89472Z" fill="black"/>
</g>
<defs>
<clipPath id="clip0_804_864">
<rect width="65" height="65" fill="white" transform="translate(0 0.5)"/>
</clipPath>
</defs>
</svg>
